<svg width="194" height="40" viewBox="0 0 194 40" fill="none" xmlns="http://www.w3.org/2000/svg">
<path d="M29.6362 4.99835C29.6362 4.99835 38.5369 12.408 51.4567 12.408V40.0001H60.3873V4.99835H29.6362Z" fill="#006B2A"/>
<path d="M0 39.9817C0 39.9817 22.0241 31.1549 29.5711 39.9817V4.99826C29.5711 4.99826 28.487 0.105341 19.1251 0.00149606C11.3325 -0.0779145 1.36565 3.0191 9.60147 5.68852C9.60147 5.68852 0.592979 13.3913 0 39.9817Z" fill="url(#paint0_linear_222_369)"/>
<path d="M73.4435 8.7612H76.9535C77.5464 8.7612 77.84 8.99332 77.84 9.46368C77.84 9.93403 77.5405 10.1662 76.9535 10.1662H74.3779C75.0907 10.4349 75.6777 10.8564 76.1329 11.4184C76.5881 11.9804 76.8157 12.634 76.8157 13.3609C76.8157 14.4116 76.3605 15.3095 75.4501 16.0486C74.5396 16.7878 73.4854 17.1543 72.2935 17.1543C71.1015 17.1543 70.0414 16.8 69.1369 16.0914C68.2265 15.3828 67.7713 14.5032 67.7713 13.4525C67.7713 12.7012 68.0049 12.0354 68.4721 11.4551C68.9393 10.8747 69.5322 10.441 70.245 10.1539H68.4122C68.1606 10.1539 67.7653 10.0318 67.2262 9.78132C66.6871 9.53698 66.4116 9.29264 66.4116 9.05441C66.4116 8.91391 66.4775 8.82229 66.6093 8.79174C66.7411 8.7612 66.8549 8.74288 66.9507 8.74288H71.1794V8.31528C71.1794 7.91823 70.9578 7.64945 70.5086 7.50285C70.0593 7.36235 69.8377 7.17299 69.8377 6.92865C69.8377 6.80037 69.8797 6.72096 69.9635 6.69042C70.0474 6.65988 70.1552 6.64155 70.2929 6.64155H73.2399C73.3117 6.64155 73.3597 6.65377 73.3956 6.69042C73.4315 6.72096 73.4495 6.76983 73.4495 6.83091V8.74288L73.4435 8.7612ZM73.8388 21.8273C73.8388 21.925 73.8628 21.9922 73.9107 22.035C73.9586 22.0716 74.0425 22.09 74.1683 22.09H81.266C81.871 22.09 82.1705 22.316 82.1705 22.7741C82.1705 23.2323 81.871 23.4583 81.266 23.4583H73.5693C73.0242 23.4583 72.5271 23.3666 72.0839 23.1712C71.6406 22.9818 71.425 22.6031 71.425 22.0472V19.8481C71.425 19.3228 71.1614 18.9807 70.6284 18.8341C70.1013 18.6814 69.8377 18.4798 69.8377 18.2233C69.8377 18.0828 69.8797 17.9912 69.9695 17.9606C70.0593 17.9301 70.1791 17.9117 70.3289 17.9117H73.6292C73.7011 17.9117 73.749 17.9301 73.7849 17.9606C73.8209 17.9912 73.8388 18.0461 73.8388 18.1255V21.8273ZM70.1851 13.4464C70.1851 14.0817 70.3468 14.6865 70.6763 15.2484C71.0057 15.8104 71.5388 16.0975 72.2635 16.0975C72.9883 16.0975 73.5154 15.8165 73.8748 15.2607C74.2342 14.7048 74.4138 14.1123 74.4138 13.4953C74.4138 12.8417 74.2401 12.2369 73.8987 11.6689C73.5573 11.1069 73.0242 10.8259 72.2875 10.8259C71.5508 10.8259 71.0596 11.1069 70.7062 11.6627C70.3588 12.2186 70.1851 12.8173 70.1851 13.4525V13.4464ZM81.4697 11.5833H83.3505C83.9973 11.5833 84.3208 11.8093 84.3208 12.2675C84.3208 12.7256 83.9973 12.9455 83.3505 12.9455H81.4697V17.8201C81.4697 18.4859 81.3679 18.9258 81.1582 19.1334C80.9546 19.3411 80.6431 19.445 80.2298 19.445H79.3194C79.2655 19.445 79.2116 19.4267 79.1756 19.3839C79.1337 19.3411 79.1157 19.2984 79.1157 19.2495V8.43134C79.1157 7.77773 78.8462 7.38679 78.3011 7.25851C77.7561 7.13023 77.4866 6.89811 77.4866 6.56825C77.4866 6.42775 77.5524 6.33612 77.6842 6.30558C77.81 6.27504 77.9657 6.25671 78.1454 6.25671H81.266C81.3319 6.25671 81.3858 6.27504 81.4218 6.30558C81.4577 6.33612 81.4757 6.38499 81.4757 6.44608V11.5833H81.4697Z" fill="#231F20"/>
<path d="M96.7307 12.915L97.0602 8.51686C97.0602 8.46799 97.0602 8.43745 97.0482 8.42523C97.0482 8.41301 97.0063 8.4008 96.9344 8.4008H89.034C88.8124 8.4008 88.4171 8.27252 87.848 8.01596C87.273 7.7594 86.9915 7.53339 86.9915 7.31959C86.9915 7.19742 87.0514 7.1119 87.1652 7.06914C87.285 7.02638 87.3868 7.00806 87.4827 7.00806H99.3482C99.6896 7.00806 99.9292 7.08747 100.061 7.23407C100.193 7.38678 100.229 7.58836 100.175 7.84492C100.079 8.37025 99.8514 9.15825 99.498 10.2089C99.1386 11.2535 98.7732 12.1575 98.4019 12.9028H101.415C102.032 12.9028 102.337 13.1288 102.337 13.5808C102.337 14.0328 102.032 14.265 101.415 14.265H94.8679V17.3009H99.4321C99.486 17.3009 99.5339 17.3131 99.5758 17.3498C99.6178 17.3803 99.6357 17.4292 99.6357 17.4903V22.6031C99.6357 23.1101 99.5639 23.4705 99.4201 23.6782C99.2764 23.8859 98.9829 23.9897 98.5456 23.9897H97.4495C97.3956 23.9897 97.3477 23.9714 97.3058 23.9286C97.2638 23.8859 97.2459 23.8431 97.2459 23.7942V18.6814H89.034C88.7704 18.6814 88.3871 18.5654 87.878 18.3332C87.3689 18.1011 87.1113 17.8751 87.1113 17.6491C87.1113 17.478 87.1712 17.3742 87.285 17.3436C87.4048 17.307 87.5246 17.2948 87.6444 17.2948H92.2684V14.2589H86.9855C86.71 14.2589 86.3087 14.1428 85.7876 13.9107C85.2665 13.6785 85.0029 13.4709 85.0029 13.2815C85.0029 13.1227 85.0269 13.0188 85.0868 12.97C85.1407 12.9211 85.2425 12.8967 85.3983 12.8967H96.7248L96.7307 12.915Z" fill="#231F20"/>
<path d="M112.837 20.3002H119.94C120.611 20.3002 120.953 20.5262 120.953 20.9904C120.953 21.4547 120.617 21.6868 119.94 21.6868H105.475C105.092 21.6868 104.661 21.5646 104.193 21.3264C103.726 21.0821 103.493 20.8683 103.493 20.6789C103.493 20.5201 103.523 20.4162 103.577 20.3674C103.63 20.3185 103.732 20.2941 103.888 20.2941H110.225V15.6822C110.225 15.2179 109.974 14.9064 109.482 14.7414C108.985 14.5704 108.74 14.3566 108.74 14.0817C108.74 13.9412 108.794 13.8496 108.895 13.8191C108.997 13.7885 109.093 13.7702 109.189 13.7702H112.639C112.711 13.7702 112.759 13.7885 112.795 13.8191C112.831 13.8435 112.849 13.8985 112.849 13.9596V20.288L112.837 20.3002ZM107.572 9.29266C107.338 9.26211 106.919 9.1094 106.314 8.85284C105.709 8.59018 105.409 8.35195 105.409 8.14426C105.409 7.99765 105.463 7.91213 105.565 7.86937C105.667 7.83272 105.769 7.80829 105.865 7.80829H118.263C118.665 7.80829 118.934 7.90602 119.072 8.09539C119.21 8.29086 119.264 8.52298 119.24 8.81008C119.102 9.9707 118.88 11.1985 118.569 12.4874C118.257 13.7763 117.856 15.0713 117.365 16.3785C117.119 17.0016 116.826 17.307 116.496 17.307C116.167 17.307 116.017 16.9894 116.041 16.3541V9.55532C116.041 9.46369 116.017 9.39039 115.975 9.35374C115.939 9.31709 115.861 9.29266 115.754 9.29266H107.578H107.572Z" fill="#231F20"/>
<path d="M129.188 12.9639C129.116 13.031 129.044 13.0921 128.972 13.1593C128.9 13.2204 128.828 13.2876 128.757 13.3487C127.888 14.0817 126.966 14.7598 125.989 15.3767C125.013 15.9998 124.115 16.4762 123.282 16.8061C122.857 16.9649 122.617 16.9771 122.563 16.8428C122.509 16.7023 122.623 16.5312 122.911 16.3235C123.336 16.0059 123.911 15.5539 124.636 14.9797C125.354 14.3994 126.043 13.7641 126.69 13.0799C127.175 12.5729 127.69 11.9071 128.247 11.0885C128.811 10.27 129.17 9.62861 129.332 9.17047H125.307C125.103 9.17047 124.755 9.0483 124.276 8.81007C123.797 8.57184 123.552 8.35804 123.552 8.16257C123.552 8.03429 123.599 7.94877 123.695 7.8999C123.791 7.85103 123.911 7.8266 124.049 7.8266H132.141C132.356 7.8266 132.5 7.8999 132.56 8.0404C132.626 8.187 132.62 8.33361 132.548 8.49243C132.368 8.90781 132.027 9.4759 131.506 10.1967C130.991 10.9236 130.434 11.6078 129.847 12.2675C130.218 12.5057 130.601 12.7134 131.003 12.8967C131.404 13.0799 131.775 13.2082 132.117 13.2876C132.297 13.3365 132.44 13.3548 132.56 13.3365C132.68 13.3243 132.782 13.3914 132.883 13.5503C133.243 14.1245 133.524 14.7475 133.728 15.4256C133.938 16.1036 133.902 16.5251 133.626 16.7023C133.339 16.8916 132.901 16.7023 132.302 16.1403C131.71 15.5783 131.14 14.998 130.589 14.4055C130.326 14.1367 130.08 13.8801 129.847 13.6297C129.613 13.3853 129.392 13.1532 129.188 12.9455V12.9639ZM129.871 21.8273C129.871 21.925 129.895 21.9922 129.943 22.035C129.996 22.0716 130.08 22.09 130.2 22.09H137.298C137.903 22.09 138.208 22.316 138.208 22.7741C138.208 23.2323 137.903 23.4583 137.298 23.4583H129.601C129.05 23.4583 128.553 23.3666 128.116 23.1712C127.672 22.9818 127.457 22.6031 127.457 22.0472V19.4633C127.457 18.938 127.193 18.602 126.66 18.4493C126.133 18.3027 125.87 18.095 125.87 17.8445C125.87 17.7041 125.911 17.6124 126.001 17.5819C126.091 17.5513 126.211 17.533 126.361 17.533H129.667C129.739 17.533 129.787 17.5513 129.823 17.5819C129.853 17.6124 129.871 17.6613 129.871 17.7224V21.8273ZM135.363 11.1496V8.43134C135.363 7.77773 135.094 7.38679 134.549 7.25851C134.004 7.13023 133.734 6.89811 133.734 6.56825C133.734 6.42775 133.8 6.33612 133.932 6.30558C134.057 6.27504 134.219 6.25671 134.399 6.25671H137.514C137.585 6.25671 137.633 6.27504 137.669 6.30558C137.705 6.33612 137.723 6.38499 137.723 6.44608V17.6246C137.723 18.2905 137.621 18.7303 137.412 18.938C137.202 19.1457 136.897 19.2495 136.483 19.2495H135.573C135.519 19.2495 135.471 19.2312 135.429 19.1884C135.387 19.1457 135.369 19.1029 135.369 19.0601V12.4935H133.141C133.003 12.4935 132.716 12.3591 132.279 12.0964C131.835 11.8338 131.62 11.62 131.62 11.4673C131.62 11.3146 131.662 11.2168 131.751 11.1924C131.841 11.168 131.931 11.1557 132.027 11.1557H135.369L135.363 11.1496Z" fill="#231F20"/>
<path d="M153.925 10.9847V8.43134C153.925 7.77773 153.655 7.38679 153.11 7.25851C152.571 7.13023 152.295 6.89811 152.295 6.56825C152.295 6.42775 152.361 6.33612 152.493 6.30558C152.619 6.27504 152.775 6.25671 152.954 6.25671H156.075C156.141 6.25671 156.195 6.27504 156.231 6.30558C156.267 6.33612 156.285 6.38499 156.285 6.44608V17.7224C156.285 18.3943 156.183 18.828 155.979 19.0235C155.769 19.219 155.464 19.3228 155.051 19.3228H154.14C154.086 19.3228 154.038 19.3106 153.996 19.2739C153.955 19.2434 153.931 19.1945 153.931 19.1334V12.2797H151.972C151.864 12.2797 151.702 12.2369 151.499 12.1453C151.289 12.0598 151.097 11.9498 150.918 11.8277V15.2423C150.918 15.6394 150.858 15.9387 150.744 16.1342C150.624 16.3296 150.367 16.4335 149.971 16.4335H148.833C148.779 16.4335 148.726 16.4213 148.678 16.3846C148.63 16.3541 148.606 16.3113 148.606 16.2624V15.786H144.724C144.724 15.9631 144.653 16.122 144.509 16.2747C144.365 16.4274 144.113 16.5007 143.754 16.5007H142.664C142.61 16.5007 142.556 16.4824 142.508 16.4518C142.46 16.4213 142.436 16.3785 142.436 16.3296V9.5492C142.436 9.13993 142.215 8.84061 141.778 8.66957C141.334 8.49243 141.119 8.28474 141.119 8.04651C141.119 7.95488 141.149 7.88769 141.22 7.84493C141.292 7.80217 141.37 7.78384 141.466 7.78384H144.545C144.611 7.78384 144.665 7.79606 144.694 7.83271C144.73 7.86936 144.748 7.91212 144.748 7.97931V10.5082H148.612V9.1216C148.612 8.70623 148.39 8.41302 147.959 8.22365C147.528 8.0404 147.312 7.85103 147.312 7.66167C147.312 7.56393 147.342 7.49063 147.402 7.44787C147.462 7.399 147.534 7.37457 147.617 7.37457H150.714C150.78 7.37457 150.834 7.38679 150.87 7.42344C150.906 7.45398 150.924 7.50285 150.924 7.57004V10.9847H153.937H153.925ZM148.438 21.8273C148.438 21.925 148.462 21.9922 148.51 22.035C148.558 22.0716 148.642 22.09 148.767 22.09H155.871C156.476 22.09 156.776 22.316 156.776 22.7741C156.776 23.2323 156.476 23.4583 155.871 23.4583H148.169C147.617 23.4583 147.126 23.3666 146.683 23.1712C146.24 22.9818 146.024 22.6031 146.024 22.0472V19.4205C146.024 18.8952 145.761 18.5592 145.228 18.4065C144.7 18.2599 144.431 18.0583 144.431 17.8201C144.431 17.6796 144.479 17.588 144.563 17.5575C144.653 17.5269 144.772 17.5086 144.922 17.5086H148.222C148.294 17.5086 148.342 17.5269 148.378 17.5575C148.414 17.588 148.432 17.6369 148.432 17.6979V21.8273H148.438ZM148.606 11.7727H144.742V14.4971H148.606V11.7727Z" fill="#231F20"/>
<path d="M169.156 9.35984H172.474V8.35804C172.474 7.70443 172.205 7.3257 171.66 7.22186C171.115 7.11801 170.839 6.89811 170.839 6.56825C170.839 6.42775 170.905 6.33612 171.037 6.30558C171.169 6.27504 171.324 6.25671 171.498 6.25671H174.613C174.678 6.25671 174.732 6.27504 174.768 6.30558C174.804 6.33612 174.822 6.38499 174.822 6.44608V15.0469C174.822 15.7127 174.714 16.1097 174.511 16.2319C174.301 16.3541 173.996 16.4152 173.582 16.4152H172.678C172.624 16.4152 172.576 16.3907 172.528 16.3541C172.486 16.3113 172.468 16.2686 172.468 16.2258V13.5014H169.228C168.803 14.1367 168.216 14.6498 167.473 15.0407C166.73 15.4317 165.91 15.6272 165.017 15.6272C163.723 15.6272 162.597 15.2301 161.645 14.4299C160.687 13.6358 160.213 12.6523 160.213 11.4917C160.213 10.3311 160.687 9.32929 161.645 8.52908C162.603 7.73497 163.723 7.33181 165.017 7.33181C165.868 7.33181 166.664 7.52117 167.401 7.89379C168.138 8.26641 168.719 8.75509 169.144 9.35984H169.156ZM162.675 11.4856C162.675 12.1881 162.867 12.8478 163.244 13.4709C163.622 14.0878 164.214 14.3994 165.029 14.3994C165.844 14.3994 166.437 14.0878 166.814 13.4709C167.191 12.8478 167.383 12.1881 167.383 11.4856C167.383 10.7831 167.197 10.0806 166.826 9.46979C166.455 8.85894 165.856 8.5474 165.035 8.5474C164.215 8.5474 163.61 8.85283 163.238 9.46979C162.867 10.0806 162.681 10.7526 162.681 11.4856H162.675ZM174.708 22.5664C174.708 23.159 174.637 23.5438 174.493 23.7393C174.349 23.9286 174.026 24.0264 173.534 24.0264H172.564C172.51 24.0264 172.462 24.008 172.42 23.9653C172.378 23.9286 172.36 23.8798 172.36 23.837V18.5837H164.825C164.634 18.5837 164.274 18.4676 163.747 18.2233C163.214 17.985 162.951 17.7468 162.951 17.5086C162.951 17.4292 162.969 17.3498 163.011 17.2826C163.052 17.2154 163.16 17.1726 163.34 17.1726H174.505C174.571 17.1726 174.625 17.1909 174.655 17.2276C174.69 17.2581 174.708 17.3009 174.708 17.3681V22.5725V22.5664ZM172.48 10.6304H169.737C169.761 10.7587 169.785 10.8931 169.809 11.0458C169.833 11.1985 169.839 11.3451 169.839 11.4856C169.839 11.6139 169.827 11.736 169.815 11.8582C169.803 11.9743 169.779 12.0964 169.755 12.2064H172.474V10.6304H172.48Z" fill="#231F20"/>
<path d="M183.057 14.9247L179.901 15.2118C179.721 15.2423 179.368 15.1079 178.835 14.8025C178.307 14.4971 178.044 14.2466 178.044 14.039C178.044 13.8923 178.086 13.8007 178.17 13.7519C178.248 13.703 178.361 13.6785 178.499 13.6785L189.604 13.3914C190.209 13.3792 190.526 13.5136 190.55 13.8007C190.574 14.0878 190.317 14.2589 189.766 14.3261L185.495 14.7048V16.6167C185.495 17.1421 185.393 17.4903 185.184 17.6613C184.974 17.8262 184.657 17.9117 184.213 17.9117H183.261C183.207 17.9117 183.159 17.8934 183.117 17.8507C183.075 17.814 183.051 17.7651 183.051 17.7224V14.9308L183.057 14.9247ZM184.315 6.65988C185.441 6.65988 186.424 6.9653 187.256 7.57615C188.095 8.19311 188.508 8.95056 188.508 9.85462C188.508 10.7587 188.095 11.5039 187.256 12.1209C186.424 12.7439 185.447 13.0555 184.315 13.0555C183.183 13.0555 182.207 12.7439 181.374 12.1209C180.542 11.5039 180.128 10.7465 180.128 9.85462C180.128 8.96278 180.548 8.187 181.374 7.57615C182.207 6.9653 183.189 6.65988 184.315 6.65988ZM185.495 21.8273C185.495 21.925 185.519 21.9922 185.567 22.035C185.615 22.0716 185.699 22.09 185.825 22.09H193.084C193.689 22.09 193.994 22.316 193.994 22.7741C193.994 23.2323 193.689 23.4583 193.084 23.4583H185.184C184.633 23.4583 184.141 23.3666 183.698 23.1712C183.261 22.9818 183.039 22.6031 183.039 22.0472V20.4223C183.039 19.897 182.776 19.5488 182.249 19.3839C181.716 19.2129 181.452 19.0235 181.452 18.7975C181.452 18.657 181.494 18.5654 181.584 18.5348C181.674 18.5043 181.793 18.4859 181.949 18.4859H185.291C185.363 18.4859 185.417 18.5043 185.447 18.5348C185.477 18.5654 185.501 18.6142 185.501 18.6814V21.8334L185.495 21.8273ZM182.524 9.86073C182.524 10.3738 182.668 10.8503 182.955 11.2962C183.243 11.7422 183.698 11.9621 184.315 11.9621C184.932 11.9621 185.405 11.736 185.687 11.2962C185.968 10.8503 186.112 10.3738 186.112 9.86073C186.112 9.34762 185.974 8.88948 185.699 8.43134C185.423 7.9671 184.962 7.73497 184.315 7.73497C183.668 7.73497 183.213 7.9671 182.938 8.43134C182.662 8.88948 182.524 9.37205 182.524 9.86073ZM191.149 15.8104V8.35804C191.149 7.70443 190.88 7.3257 190.335 7.22186C189.79 7.11801 189.52 6.89811 189.52 6.56825C189.52 6.42775 189.586 6.33612 189.718 6.30558C189.85 6.27504 189.999 6.25671 190.179 6.25671H193.3C193.366 6.25671 193.419 6.27504 193.455 6.30558C193.491 6.33612 193.503 6.38499 193.503 6.44608V18.1255C193.503 18.7975 193.401 19.219 193.192 19.4022C192.988 19.5855 192.677 19.6771 192.263 19.6771H191.353C191.299 19.6771 191.251 19.6588 191.209 19.6221C191.167 19.5794 191.149 19.5366 191.149 19.4877V17.0993H188.322C188.131 17.0993 187.807 16.9833 187.364 16.7389C186.915 16.5007 186.693 16.293 186.693 16.1158C186.693 16.0181 186.723 15.9448 186.777 15.8898C186.831 15.8349 186.909 15.8043 187.005 15.8043H191.149V15.8104Z" fill="#231F20"/>
<path d="M67.0525 28.6444V33.6595H66.4116V28.6444H67.0525Z" fill="#929B3D"/>
<path d="M67.9572 31.0328C67.9572 30.6541 67.9512 30.3548 67.9272 30.0555H68.4963L68.5322 30.6419H68.5442C68.7179 30.3059 69.1252 29.97 69.7122 29.97C70.2033 29.97 70.958 30.2693 70.958 31.5032V33.6534H70.3171V31.5765C70.3171 30.9962 70.1075 30.5075 69.5025 30.5075C69.0892 30.5075 68.7598 30.8129 68.64 31.1795C68.6101 31.2589 68.5981 31.381 68.5981 31.4849V33.6595H67.9572V31.0328Z" fill="#929B3D"/>
<path d="M71.7367 32.9998C71.9343 33.1158 72.2697 33.2502 72.5932 33.2502C73.0544 33.2502 73.27 33.0181 73.27 32.7127C73.27 32.4073 73.0903 32.2301 72.6231 32.053C71.9822 31.8147 71.6828 31.4665 71.6828 31.0328C71.6828 30.4525 72.1499 29.9761 72.8987 29.9761C73.258 29.9761 73.5695 30.0738 73.7612 30.2021L73.6054 30.6724C73.4677 30.593 73.2101 30.4648 72.8807 30.4648C72.5033 30.4648 72.2997 30.6908 72.2997 30.9534C72.2997 31.2589 72.5033 31.3932 72.9645 31.5704C73.5695 31.8025 73.8929 32.1141 73.8929 32.6577C73.8929 33.2991 73.4018 33.745 72.5812 33.745C72.1919 33.745 71.8385 33.6412 71.5869 33.4946L71.7426 33.0059L71.7367 32.9998Z" fill="#929B3D"/>
<path d="M75.3063 29.1942V30.0555H76.2227V30.5563H75.3063V32.4989C75.3063 32.9448 75.4321 33.2013 75.7855 33.2013C75.9592 33.2013 76.061 33.1891 76.1568 33.1586L76.1868 33.6595C76.061 33.7022 75.8633 33.7511 75.6178 33.7511C75.3183 33.7511 75.0787 33.6473 74.923 33.4762C74.7493 33.2746 74.6774 32.957 74.6774 32.5294V30.5625H74.1323V30.0616H74.6774V29.4018L75.3063 29.2003V29.1942Z" fill="#929B3D"/>
<path d="M77.0668 29.3958C76.8272 29.3958 76.6655 29.2003 76.6655 28.9743C76.6655 28.7483 76.8332 28.5589 77.0788 28.5589C77.3244 28.5589 77.4861 28.7422 77.4861 28.9743C77.4861 29.2064 77.3244 29.3958 77.0728 29.3958H77.0668ZM76.7614 33.6595V30.0555H77.4023V33.6595H76.7614Z" fill="#929B3D"/>
<path d="M79.0617 29.1942V30.0555H79.9781V30.5563H79.0617V32.4989C79.0617 32.9448 79.1875 33.2013 79.5409 33.2013C79.7146 33.2013 79.8164 33.1891 79.9122 33.1586L79.9422 33.6595C79.8164 33.7022 79.6187 33.7511 79.3731 33.7511C79.0737 33.7511 78.8341 33.6473 78.6783 33.4762C78.5046 33.2746 78.4328 32.957 78.4328 32.5294V30.5625H77.8877V30.0616H78.4328V29.4018L79.0617 29.2003V29.1942Z" fill="#929B3D"/>
<path d="M83.4758 32.676C83.4758 33.0486 83.4818 33.3724 83.5057 33.6595H82.9367L82.9008 33.0731H82.8888C82.7271 33.3663 82.3497 33.745 81.7208 33.745C81.1637 33.745 80.5049 33.4274 80.5049 32.169V30.0616H81.1458V32.0469C81.1458 32.731 81.3554 33.2014 81.9304 33.2014C82.3617 33.2014 82.6612 32.8959 82.775 32.5966C82.8109 32.505 82.8349 32.3889 82.8349 32.2607V30.0555H83.4758V32.676Z" fill="#929B3D"/>
<path d="M85.1291 29.1942V30.0555H86.0455V30.5563H85.1291V32.4989C85.1291 32.9448 85.2548 33.2013 85.6082 33.2013C85.7819 33.2013 85.8838 33.1891 85.9796 33.1586L86.0095 33.6595C85.8838 33.7022 85.6861 33.7511 85.4405 33.7511C85.141 33.7511 84.9015 33.6473 84.7457 33.4762C84.572 33.2746 84.5001 32.957 84.5001 32.5294V30.5625H83.9551V30.0616H84.5001V29.4018L85.1291 29.2003V29.1942Z" fill="#929B3D"/>
<path d="M86.9138 31.9736C86.9258 32.8593 87.4768 33.2258 88.1177 33.2258C88.5789 33.2258 88.8605 33.1464 89.0941 33.0487L89.2138 33.5068C88.9862 33.6106 88.5909 33.7389 88.0339 33.7389C86.9557 33.7389 86.2969 32.9998 86.2969 31.9247C86.2969 30.8496 86.9318 29.9761 87.962 29.9761C89.112 29.9761 89.4115 31.0084 89.4115 31.6742C89.4115 31.8086 89.4055 31.9125 89.3876 31.9858H86.9138V31.9736ZM88.7886 31.4971C88.7946 31.0878 88.6209 30.4342 87.9081 30.4342C87.2492 30.4342 86.9737 31.0451 86.9198 31.4971H88.7886Z" fill="#929B3D"/>
<path d="M91.4418 33.6593V30.5562H90.9507V30.0553H91.4418V29.8842C91.4418 29.3772 91.5616 28.9191 91.8551 28.6259C92.0947 28.3877 92.4181 28.2899 92.7116 28.2899C92.9452 28.2899 93.1369 28.3449 93.2567 28.3938L93.1788 28.9008C93.077 28.858 92.9512 28.8214 92.7656 28.8214C92.2265 28.8214 92.0767 29.31 92.0767 29.8659V30.0614H92.9333V30.5623H92.0887V33.6654H91.4478L91.4418 33.6593Z" fill="#929B3D"/>
<path d="M94.6819 33.745C93.7355 33.745 92.9868 33.0303 92.9868 31.8941C92.9868 30.6908 93.7655 29.9822 94.7358 29.9822C95.7061 29.9822 96.4369 30.7335 96.4369 31.8269C96.4369 33.1647 95.5264 33.745 94.6879 33.745H94.6819ZM94.7059 33.2563C95.3168 33.2563 95.778 32.6699 95.778 31.8514C95.778 31.2405 95.4785 30.477 94.7178 30.477C93.9571 30.477 93.6397 31.1917 93.6397 31.8758C93.6397 32.6638 94.0769 33.2624 94.6999 33.2624H94.7059V33.2563Z" fill="#929B3D"/>
<path d="M97.0778 31.1856C97.0778 30.7641 97.0718 30.3976 97.0479 30.0616H97.6109L97.6408 30.7702H97.6648C97.8265 30.2876 98.2218 29.9822 98.6471 29.9822C98.713 29.9822 98.7669 29.9883 98.8208 30.0066V30.6175C98.7489 30.6114 98.683 30.6052 98.5932 30.6052C98.138 30.6052 97.8205 30.9534 97.7307 31.436C97.7187 31.5337 97.7067 31.6376 97.7067 31.7475V33.6656H97.0658V31.1856H97.0778Z" fill="#929B3D"/>
<path d="M101.408 29.1942V30.0555H102.325V30.5563H101.408V32.4989C101.408 32.9448 101.534 33.2013 101.888 33.2013C102.061 33.2013 102.163 33.1891 102.259 33.1586L102.289 33.6595C102.163 33.7022 101.965 33.7511 101.72 33.7511C101.42 33.7511 101.181 33.6473 101.025 33.4762C100.851 33.2746 100.779 32.957 100.779 32.5294V30.5625H100.234V30.0616H100.779V29.4018L101.408 29.2003V29.1942Z" fill="#929B3D"/>
<path d="M102.87 28.3756H103.511V30.6235H103.523C103.624 30.4403 103.786 30.2692 103.984 30.1593C104.175 30.0432 104.397 29.976 104.643 29.976C105.116 29.976 105.876 30.2754 105.876 31.5154V33.6595H105.236V31.5887C105.236 31.0023 105.026 30.5197 104.415 30.5197C104.002 30.5197 103.678 30.819 103.552 31.1733C103.517 31.2649 103.511 31.3566 103.511 31.4848V33.6595H102.87V28.3756Z" fill="#929B3D"/>
<path d="M107.098 31.9736C107.11 32.8593 107.661 33.2258 108.302 33.2258C108.764 33.2258 109.045 33.1464 109.279 33.0487L109.398 33.5068C109.171 33.6106 108.781 33.7389 108.218 33.7389C107.14 33.7389 106.481 32.9998 106.481 31.9247C106.481 30.8496 107.116 29.9761 108.147 29.9761C109.297 29.9761 109.596 31.0084 109.596 31.6742C109.596 31.8086 109.59 31.9125 109.572 31.9858H107.098V31.9736ZM108.973 31.4971C108.979 31.0878 108.805 30.4342 108.093 30.4342C107.434 30.4342 107.158 31.0451 107.11 31.4971H108.979H108.973Z" fill="#929B3D"/>
<path d="M112.231 29.1942H110.734V28.6444H114.376V29.1942H112.872V33.6595H112.231V29.1942Z" fill="#929B3D"/>
<path d="M114.4 31.1856C114.4 30.7641 114.394 30.3976 114.37 30.0616H114.933L114.963 30.7702H114.987C115.148 30.2876 115.544 29.9822 115.975 29.9822C116.041 29.9822 116.095 29.9883 116.149 30.0066V30.6175C116.077 30.6114 116.011 30.6052 115.921 30.6052C115.466 30.6052 115.148 30.9534 115.058 31.436C115.046 31.5337 115.034 31.6376 115.034 31.7475V33.6656H114.394V31.1856H114.4Z" fill="#929B3D"/>
<path d="M119.042 32.7982C119.042 33.1097 119.054 33.4152 119.09 33.6595H118.515L118.455 33.2075H118.431C118.239 33.4885 117.856 33.745 117.353 33.745C116.64 33.745 116.274 33.2319 116.274 32.7127C116.274 31.8392 117.035 31.3688 118.395 31.3749V31.3016C118.395 31.0023 118.317 30.4586 117.592 30.4709C117.257 30.4709 116.915 30.5686 116.664 30.7396L116.52 30.2998C116.813 30.1105 117.245 29.9883 117.688 29.9883C118.772 29.9883 119.036 30.7396 119.036 31.4604V32.8043L119.042 32.7982ZM118.413 31.8208C117.712 31.8086 116.915 31.9308 116.915 32.6333C116.915 33.067 117.191 33.2563 117.514 33.2563C117.981 33.2563 118.281 32.957 118.383 32.6516C118.407 32.5844 118.413 32.5111 118.413 32.4439V31.8208Z" fill="#929B3D"/>
<path d="M119.886 31.0328C119.886 30.6541 119.88 30.3548 119.856 30.0555H120.425L120.461 30.6419H120.473C120.647 30.3059 121.054 29.97 121.641 29.97C122.132 29.97 122.887 30.2693 122.887 31.5032V33.6534H122.246V31.5765C122.246 30.9962 122.036 30.5075 121.431 30.5075C121.018 30.5075 120.689 30.8129 120.569 31.1795C120.539 31.2589 120.527 31.381 120.527 31.4849V33.6595H119.886V31.0328Z" fill="#929B3D"/>
<path d="M123.665 32.9998C123.863 33.1158 124.198 33.2502 124.522 33.2502C124.983 33.2502 125.199 33.0181 125.199 32.7127C125.199 32.4073 125.019 32.2301 124.552 32.053C123.911 31.8147 123.611 31.4665 123.611 31.0328C123.611 30.4525 124.079 29.9761 124.827 29.9761C125.187 29.9761 125.498 30.0738 125.69 30.2021L125.534 30.6724C125.396 30.593 125.139 30.4648 124.809 30.4648C124.432 30.4648 124.228 30.6908 124.228 30.9534C124.228 31.2589 124.432 31.3932 124.893 31.5704C125.498 31.8025 125.822 32.1141 125.822 32.6577C125.822 33.2991 125.331 33.745 124.51 33.745C124.121 33.745 123.767 33.6412 123.516 33.4946L123.671 33.0059L123.665 32.9998Z" fill="#929B3D"/>
<path d="M126.457 28.3756H127.097V33.6595H126.457V28.3756Z" fill="#929B3D"/>
<path d="M130.469 32.7982C130.469 33.1097 130.481 33.4152 130.523 33.6595H129.948L129.888 33.2075H129.864C129.673 33.4885 129.289 33.745 128.786 33.745C128.073 33.745 127.708 33.2319 127.708 32.7127C127.708 31.8392 128.469 31.3688 129.828 31.3749V31.3016C129.828 31.0023 129.75 30.4586 129.026 30.4709C128.69 30.4709 128.349 30.5686 128.097 30.7396L127.954 30.2998C128.247 30.1105 128.678 29.9883 129.122 29.9883C130.206 29.9883 130.469 30.7396 130.469 31.4604V32.8043V32.7982ZM129.84 31.8208C129.14 31.8086 128.343 31.9308 128.343 32.6333C128.343 33.067 128.618 33.2563 128.942 33.2563C129.409 33.2563 129.709 32.957 129.81 32.6516C129.834 32.5844 129.84 32.5111 129.84 32.4439V31.8208Z" fill="#929B3D"/>
<path d="M132.063 29.1942V30.0555H132.979V30.5563H132.063V32.4989C132.063 32.9448 132.188 33.2013 132.542 33.2013C132.716 33.2013 132.817 33.1891 132.913 33.1586L132.943 33.6595C132.817 33.7022 132.62 33.7511 132.374 33.7511C132.075 33.7511 131.835 33.6473 131.679 33.4762C131.506 33.2746 131.434 32.957 131.434 32.5294V30.5625H130.889V30.0616H131.434V29.4018L132.063 29.2003V29.1942Z" fill="#929B3D"/>
<path d="M133.836 29.3958C134.093 29.3958 134.249 29.2003 134.249 28.9743C134.249 28.7483 134.087 28.5589 133.842 28.5589C133.596 28.5589 133.428 28.7422 133.428 28.9743C133.428 29.2064 133.59 29.3958 133.83 29.3958H133.836ZM134.165 33.6595V30.0555H133.524V33.6595H134.165Z" fill="#929B3D"/>
<path d="M136.483 33.745C135.536 33.745 134.788 33.0303 134.788 31.8941C134.788 30.6908 135.566 29.9822 136.537 29.9822C137.507 29.9822 138.238 30.7335 138.238 31.8269C138.238 33.1647 137.327 33.745 136.489 33.745H136.483ZM136.507 33.2563C137.118 33.2563 137.579 32.6699 137.579 31.8514C137.579 31.2405 137.279 30.477 136.519 30.477C135.758 30.477 135.44 31.1917 135.44 31.8758C135.44 32.6638 135.878 33.2624 136.501 33.2624H136.507V33.2563Z" fill="#929B3D"/>
<path d="M138.867 31.0328C138.867 30.6541 138.861 30.3548 138.837 30.0555H139.406L139.442 30.6419H139.454C139.628 30.3059 140.035 29.97 140.622 29.97C141.113 29.97 141.868 30.2693 141.868 31.5032V33.6534H141.227V31.5765C141.227 30.9962 141.017 30.5075 140.412 30.5075C139.999 30.5075 139.669 30.8129 139.55 31.1795C139.52 31.2589 139.508 31.381 139.508 31.4849V33.6595H138.867V31.0328Z" fill="#929B3D"/>
<path d="M145.539 33.745C144.592 33.745 143.844 33.0303 143.844 31.8941C143.844 30.6908 144.622 29.9822 145.593 29.9822C146.563 29.9822 147.294 30.7335 147.294 31.8269C147.294 33.1647 146.383 33.745 145.545 33.745H145.539ZM145.563 33.2563C146.174 33.2563 146.635 32.6699 146.635 31.8514C146.635 31.2405 146.335 30.477 145.575 30.477C144.814 30.477 144.497 31.1917 144.497 31.8758C144.497 32.6638 144.934 33.2624 145.557 33.2624H145.563V33.2563Z" fill="#929B3D"/>
<path d="M148.624 33.6595V30.5564H149.468V30.0555H148.612V29.86C148.612 29.3102 148.756 28.8154 149.301 28.8154C149.492 28.8154 149.612 28.8521 149.714 28.8948L149.792 28.3878C149.666 28.3329 149.48 28.284 149.247 28.284C148.953 28.284 148.636 28.3817 148.396 28.62C148.097 28.9132 147.983 29.3713 147.983 29.8783V30.0494H147.492V30.5503H147.983V33.6534H148.624V33.6595Z" fill="#929B3D"/>
<path d="M151.259 28.6444H151.894V31.0634H151.918C152.049 30.8679 152.181 30.6908 152.307 30.5258L153.81 28.6444H154.595L152.816 30.7702L154.733 33.6595H153.984L152.373 31.1978L151.9 31.7475V33.6595H151.265V28.6444H151.259Z" fill="#929B3D"/>
<path d="M156.44 33.745C155.493 33.745 154.745 33.0303 154.745 31.8941C154.745 30.6908 155.523 29.9822 156.494 29.9822C157.464 29.9822 158.195 30.7335 158.195 31.8269C158.195 33.1647 157.284 33.745 156.446 33.745H156.44ZM156.464 33.2563C157.075 33.2563 157.536 32.6699 157.536 31.8514C157.536 31.2405 157.236 30.477 156.476 30.477C155.715 30.477 155.398 31.1917 155.398 31.8758C155.398 32.6638 155.835 33.2624 156.458 33.2624H156.464V33.2563Z" fill="#929B3D"/>
<path d="M158.83 31.1856C158.83 30.7641 158.824 30.3976 158.8 30.0616H159.363L159.393 30.7702H159.417C159.578 30.2876 159.974 29.9822 160.399 29.9822C160.465 29.9822 160.519 29.9883 160.573 30.0066V30.6175C160.501 30.6114 160.435 30.6052 160.345 30.6052C159.89 30.6052 159.572 30.9534 159.483 31.436C159.471 31.5337 159.459 31.6376 159.459 31.7475V33.6656H158.818V31.1856H158.83Z" fill="#929B3D"/>
<path d="M161.351 31.9736C161.363 32.8593 161.914 33.2258 162.555 33.2258C163.016 33.2258 163.298 33.1464 163.532 33.0487L163.651 33.5068C163.424 33.6106 163.028 33.7389 162.471 33.7389C161.393 33.7389 160.734 32.9998 160.734 31.9247C160.734 30.8496 161.369 29.9761 162.4 29.9761C163.55 29.9761 163.849 31.0084 163.849 31.6742C163.849 31.8086 163.843 31.9125 163.825 31.9858H161.351V31.9736ZM163.226 31.4971C163.232 31.0878 163.058 30.4342 162.346 30.4342C161.687 30.4342 161.411 31.0451 161.363 31.4971H163.232H163.226Z" fill="#929B3D"/>
<path d="M166.945 32.7982C166.945 33.1097 166.957 33.4152 166.993 33.6595H166.418L166.358 33.2075H166.335C166.143 33.4885 165.76 33.745 165.256 33.745C164.544 33.745 164.178 33.2319 164.178 32.7127C164.178 31.8392 164.939 31.3688 166.305 31.3749V31.3016C166.305 31.0023 166.227 30.4586 165.502 30.4709C165.167 30.4709 164.825 30.5686 164.574 30.7396L164.43 30.2998C164.723 30.1105 165.155 29.9883 165.598 29.9883C166.688 29.9883 166.945 30.7396 166.945 31.4604V32.8043V32.7982ZM166.317 31.8208C165.616 31.8086 164.819 31.9308 164.819 32.6333C164.819 33.067 165.095 33.2563 165.418 33.2563C165.885 33.2563 166.185 32.957 166.287 32.6516C166.311 32.5844 166.317 32.5111 166.317 32.4439V31.8208Z" fill="#929B3D"/>
<path d="M167.79 31.0328C167.79 30.6541 167.784 30.3548 167.76 30.0555H168.329L168.365 30.6419H168.377C168.551 30.3059 168.958 29.97 169.545 29.97C170.036 29.97 170.791 30.2693 170.791 31.5032V33.6534H170.15V31.5765C170.15 30.9962 169.94 30.5075 169.33 30.5075C168.916 30.5075 168.587 30.8129 168.467 31.1795C168.437 31.2589 168.425 31.381 168.425 31.4849V33.6595H167.784V31.0328H167.79Z" fill="#929B3D"/>
<path d="M176.475 33.5068C176.247 33.629 175.774 33.745 175.175 33.745C173.792 33.745 172.755 32.8532 172.755 31.1978C172.755 29.5424 173.798 28.565 175.325 28.565C175.93 28.565 176.325 28.6994 176.493 28.791L176.331 29.3164C176.098 29.1942 175.756 29.1087 175.343 29.1087C174.193 29.1087 173.426 29.86 173.426 31.1794C173.426 32.4134 174.121 33.1953 175.307 33.1953C175.702 33.1953 176.098 33.1158 176.349 32.9876L176.475 33.5068Z" fill="#929B3D"/>
<path d="M177.05 28.3756H177.691V33.6595H177.05V28.3756Z" fill="#929B3D"/>
<path d="M181.063 32.7982C181.063 33.1097 181.075 33.4152 181.111 33.6595H180.536L180.476 33.2075H180.452C180.26 33.4885 179.877 33.745 179.374 33.745C178.661 33.745 178.295 33.2319 178.295 32.7127C178.295 31.8392 179.056 31.3688 180.416 31.3749V31.3016C180.416 31.0023 180.338 30.4586 179.613 30.4709C179.278 30.4709 178.936 30.5686 178.685 30.7396L178.541 30.2998C178.834 30.1105 179.266 29.9883 179.709 29.9883C180.793 29.9883 181.057 30.7396 181.057 31.4604V32.8043L181.063 32.7982ZM180.434 31.8208C179.733 31.8086 178.936 31.9308 178.936 32.6333C178.936 33.067 179.212 33.2563 179.535 33.2563C180.002 33.2563 180.302 32.957 180.404 32.6516C180.428 32.5844 180.434 32.5111 180.434 32.4439V31.8208Z" fill="#929B3D"/>
<path d="M181.817 32.9998C182.015 33.1158 182.35 33.2502 182.674 33.2502C183.135 33.2502 183.351 33.0181 183.351 32.7127C183.351 32.4073 183.171 32.2301 182.704 32.053C182.063 31.8147 181.763 31.4665 181.763 31.0328C181.763 30.4525 182.231 29.9761 182.979 29.9761C183.339 29.9761 183.65 30.0738 183.842 30.2021L183.686 30.6724C183.548 30.593 183.291 30.4648 182.961 30.4648C182.584 30.4648 182.38 30.6908 182.38 30.9534C182.38 31.2589 182.584 31.3932 183.045 31.5704C183.65 31.8025 183.974 32.1141 183.974 32.6577C183.974 33.2991 183.482 33.745 182.662 33.745C182.278 33.745 181.919 33.6412 181.667 33.4946L181.823 33.0059L181.817 32.9998Z" fill="#929B3D"/>
<path d="M184.525 32.9998C184.722 33.1158 185.058 33.2502 185.381 33.2502C185.842 33.2502 186.058 33.0181 186.058 32.7127C186.058 32.4073 185.878 32.2301 185.411 32.053C184.77 31.8147 184.471 31.4665 184.471 31.0328C184.471 30.4525 184.938 29.9761 185.687 29.9761C186.046 29.9761 186.358 30.0738 186.549 30.2021L186.394 30.6724C186.256 30.593 185.998 30.4648 185.669 30.4648C185.291 30.4648 185.088 30.6908 185.088 30.9534C185.088 31.2589 185.291 31.3932 185.753 31.5704C186.358 31.8025 186.681 32.1141 186.681 32.6577C186.681 33.2991 186.19 33.745 185.369 33.745C184.98 33.745 184.627 33.6412 184.375 33.4946L184.531 33.0059L184.525 32.9998Z" fill="#929B3D"/>
<path d="M187.633 29.3958C187.891 29.3958 188.047 29.2003 188.047 28.9743C188.047 28.7483 187.885 28.5589 187.639 28.5589C187.394 28.5589 187.226 28.7422 187.226 28.9743C187.226 29.2064 187.388 29.3958 187.627 29.3958H187.633ZM187.963 33.6595V30.0555H187.322V33.6595H187.963Z" fill="#929B3D"/>
<path d="M191.365 33.5312C191.197 33.6106 190.825 33.7389 190.352 33.7389C189.286 33.7389 188.591 32.9998 188.591 31.8941C188.591 30.7885 189.334 29.9761 190.49 29.9761C190.867 29.9761 191.203 30.0738 191.383 30.1715L191.239 30.6724C191.083 30.593 190.843 30.5014 190.496 30.5014C189.687 30.5014 189.25 31.1184 189.25 31.8697C189.25 32.7005 189.777 33.2136 190.478 33.2136C190.843 33.2136 191.083 33.122 191.269 33.0425L191.377 33.5312H191.365Z" fill="#929B3D"/>
<path d="M191.844 32.9998C192.041 33.1158 192.377 33.2502 192.7 33.2502C193.161 33.2502 193.377 33.0181 193.377 32.7127C193.377 32.4073 193.197 32.2301 192.73 32.053C192.089 31.8147 191.79 31.4665 191.79 31.0328C191.79 30.4525 192.257 29.9761 193.006 29.9761C193.365 29.9761 193.676 30.0738 193.868 30.2021L193.712 30.6724C193.575 30.593 193.317 30.4648 192.988 30.4648C192.61 30.4648 192.407 30.6908 192.407 30.9534C192.407 31.2589 192.61 31.3932 193.071 31.5704C193.676 31.8025 194 32.1141 194 32.6577C194 33.2991 193.509 33.745 192.688 33.745C192.299 33.745 191.945 33.6412 191.694 33.4946L191.85 33.0059L191.844 32.9998Z" fill="#929B3D"/>
<defs>
<linearGradient id="paint0_linear_222_369" x1="0" y1="19.9946" x2="29.5711" y2="19.9946" gradientUnits="userSpaceOnUse">
<stop offset="0.4" stop-color="#D7DF23"/>
<stop offset="0.49" stop-color="#D2DB22"/>
<stop offset="0.59" stop-color="#C6D020"/>
<stop offset="0.69" stop-color="#B1BD1C"/>
<stop offset="0.79" stop-color="#94A418"/>
<stop offset="0.89" stop-color="#6F8211"/>
<stop offset="1" stop-color="#40590A"/>
</linearGradient>
</defs>
</svg>
