<svg width="100" height="87" viewBox="0 0 100 87" fill="none" xmlns="http://www.w3.org/2000/svg">
<path d="M49.1416 8.10278C49.1416 8.10278 63.8598 20.1139 85.2319 20.1139V64.8599H100V8.10278H49.1416Z" fill="#8B8B8B"/>
<path d="M0.121094 64.8385C0.121094 64.8385 36.5463 50.5263 49.0204 64.8385V8.1027C49.0204 8.1027 47.2394 0.166527 31.7518 0.00267381C18.8644 -0.132683 2.37941 4.89688 16.0006 9.22117C16.0006 9.22117 1.11133 21.7167 0.121094 64.8385Z" fill="url(#paint0_linear_164_760)"/>
<path d="M5.52112 76.3366H8.271C8.73406 76.3366 8.96915 76.4934 8.96915 76.8139C8.96915 77.1345 8.73406 77.2913 8.271 77.2913H6.24777C6.81057 77.4765 7.26651 77.7543 7.62271 78.139C7.97891 78.5237 8.15701 78.9583 8.15701 79.457C8.15701 80.1694 7.80081 80.7749 7.08841 81.2807C6.37601 81.7794 5.54962 82.0287 4.60925 82.0287C3.66888 82.0287 2.84961 81.7936 2.13721 81.3092C1.42481 80.8319 1.0686 80.2335 1.0686 79.5211C1.0686 79.0153 1.25383 78.5665 1.61715 78.1675C1.98048 77.7757 2.44354 77.4836 3.00634 77.2841H1.57441C1.38206 77.2841 1.0686 77.1986 0.641163 77.0348C0.213721 76.8709 0 76.7071 0 76.5432C0 76.4435 0.0498682 76.3865 0.156729 76.3651C0.256465 76.3438 0.349077 76.3366 0.427442 76.3366H3.74012V76.0445C3.74012 75.7738 3.56201 75.5886 3.21294 75.496C2.86386 75.3963 2.68576 75.268 2.68576 75.1113C2.68576 75.0258 2.71426 74.9688 2.77837 74.9474C2.84249 74.9261 2.92798 74.919 3.04196 74.919H5.35015C5.40001 74.919 5.44276 74.9261 5.47125 74.9474C5.49975 74.9688 5.514 75.0044 5.514 75.0401V76.3366H5.52112ZM5.82746 85.1847C5.82746 85.2488 5.8417 85.2915 5.88445 85.32C5.92007 85.3414 5.99131 85.3628 6.09105 85.3628H11.6549C12.1322 85.3628 12.3673 85.5124 12.3673 85.8187C12.3673 86.1251 12.1322 86.2818 11.6549 86.2818H5.62086C5.19342 86.2818 4.8016 86.2177 4.45252 86.0894C4.10344 85.9612 3.93246 85.7047 3.93246 85.3272V83.8382C3.93246 83.482 3.72587 83.2541 3.31267 83.1472C2.89948 83.0475 2.69288 82.905 2.69288 82.734C2.69288 82.6414 2.7285 82.5773 2.79262 82.5559C2.86386 82.5417 2.95647 82.5203 3.07758 82.5203H5.6636C5.7206 82.5203 5.75622 82.5345 5.78471 82.5559C5.81321 82.5773 5.82746 82.62 5.82746 82.6699V85.1776V85.1847ZM2.9636 79.5068C2.9636 79.9343 3.09183 80.3475 3.34829 80.725C3.60476 81.1097 4.02508 81.3021 4.595 81.3021C5.16492 81.3021 5.57812 81.1097 5.85595 80.7322C6.13379 80.3546 6.27627 79.9556 6.27627 79.5353C6.27627 79.115 6.14091 78.6804 5.8702 78.2957C5.59949 77.911 5.17917 77.7258 4.60925 77.7258C4.03932 77.7258 3.6475 77.9182 3.36967 78.2886C3.09895 78.6662 2.9636 79.0723 2.9636 79.5068ZM11.8116 78.2459H13.2863C13.7921 78.2459 14.0415 78.4026 14.0415 78.7089C14.0415 79.0153 13.7921 79.172 13.2863 79.172H11.8116V82.4704C11.8116 82.9192 11.7333 83.2184 11.5694 83.3609C11.4127 83.5034 11.1634 83.5746 10.8428 83.5746H10.1304C10.0876 83.5746 10.0449 83.5604 10.0164 83.5319C9.98789 83.5034 9.96652 83.4749 9.96652 83.4464V76.1158C9.96652 75.6741 9.7528 75.4105 9.32535 75.325C8.89791 75.2395 8.68419 75.0828 8.68419 74.8548C8.68419 74.7551 8.74118 74.6981 8.84092 74.6767C8.94066 74.6554 9.06177 74.6411 9.20425 74.6411H11.6478C11.6977 74.6411 11.7404 74.6554 11.7689 74.6767C11.7974 74.6981 11.8116 74.7337 11.8116 74.7765V78.253V78.2459Z" fill="#231F20"/>
<path d="M23.7729 79.1506L24.0294 76.1727C24.0294 76.1727 24.0294 76.1229 24.0223 76.1086C24.0223 76.1015 23.9866 76.0944 23.9368 76.0944H17.746C17.575 76.0944 17.2616 76.0089 16.8199 75.8379C16.3711 75.6598 16.1431 75.5102 16.1431 75.3677C16.1431 75.2822 16.193 75.2253 16.2856 75.1968C16.3782 75.1754 16.4565 75.1611 16.5349 75.1611H25.8318C26.1025 75.1611 26.2877 75.211 26.3874 75.3179C26.4943 75.4176 26.5228 75.553 26.48 75.7311C26.4017 76.0873 26.2236 76.6216 25.9457 77.334C25.6679 78.0464 25.3758 78.659 25.0909 79.1577H27.4489C27.9334 79.1577 28.1756 79.3144 28.1756 79.6208C28.1756 79.9271 27.9334 80.0838 27.4489 80.0838H22.3196V82.1427H25.8959C25.9386 82.1427 25.9742 82.1498 26.0099 82.1783C26.0455 82.1997 26.0597 82.2353 26.0597 82.278V85.7403C26.0597 86.0894 26.0027 86.3245 25.8888 86.4741C25.7748 86.6094 25.5468 86.6807 25.2048 86.6807H24.35C24.3072 86.6807 24.2716 86.6593 24.236 86.6379C24.2004 86.6094 24.1861 86.581 24.1861 86.5453V83.0902H17.7531C17.5465 83.0902 17.2473 83.0118 16.8484 82.8551C16.4494 82.6984 16.2499 82.5416 16.2499 82.392C16.2499 82.2709 16.2998 82.2068 16.3853 82.1854C16.4779 82.1641 16.5705 82.1498 16.6703 82.1498H20.2893V80.091H16.1502C15.9365 80.091 15.623 80.0126 15.217 79.8559C14.8109 79.7063 14.5972 79.5567 14.5972 79.4284C14.5972 79.3216 14.6185 79.2503 14.6613 79.2147C14.704 79.1791 14.7824 79.1648 14.9035 79.1648H23.78L23.7729 79.1506Z" fill="#231F20"/>
<path d="M36.3967 84.1515H41.9606C42.4878 84.1515 42.7514 84.3083 42.7514 84.6217C42.7514 84.9352 42.4878 85.0919 41.9606 85.0919H30.6192C30.3199 85.0919 29.9851 85.0064 29.6218 84.8497C29.2513 84.6858 29.0732 84.5434 29.0732 84.4151C29.0732 84.3083 29.0946 84.237 29.1374 84.2085C29.1801 84.1729 29.2656 84.1587 29.3796 84.1587H34.345V81.0383C34.345 80.7249 34.1527 80.5112 33.7609 80.3972C33.369 80.2761 33.1767 80.1336 33.1767 79.9484C33.1767 79.8557 33.2194 79.7916 33.2978 79.7703C33.3762 79.7489 33.4545 79.7346 33.5329 79.7346H36.2329C36.2899 79.7346 36.3326 79.7489 36.354 79.7703C36.3825 79.7916 36.3967 79.8201 36.3967 79.87V84.1587V84.1515ZM32.2719 76.6998C32.0867 76.6784 31.7661 76.5787 31.2888 76.4006C30.8186 76.2225 30.5764 76.0658 30.5764 75.9233C30.5764 75.8235 30.6192 75.7666 30.6975 75.7381C30.7759 75.7096 30.8543 75.6953 30.9326 75.6953H40.6498C40.9632 75.6953 41.177 75.7594 41.2838 75.8877C41.3907 76.0159 41.4334 76.1797 41.4121 76.3721C41.3052 77.1629 41.1342 77.9892 40.8849 78.8655C40.6427 79.7346 40.3292 80.6109 39.9374 81.5014C39.745 81.9217 39.5171 82.1354 39.2606 82.1354C39.0041 82.1354 38.883 81.9217 38.9044 81.4871V76.8779C38.9044 76.8138 38.8902 76.7639 38.8545 76.7354C38.8189 76.714 38.7619 76.6998 38.6764 76.6998H32.2719Z" fill="#231F20"/>
<path d="M49.2057 79.1862C49.1487 79.229 49.0917 79.2717 49.0347 79.3145C48.9777 79.3572 48.9207 79.4 48.8637 79.4427C48.187 79.9414 47.4603 80.3973 46.698 80.8177C45.9358 81.238 45.2305 81.5586 44.5822 81.7865C44.2474 81.8934 44.0621 81.9005 44.0194 81.815C43.9767 81.7224 44.0693 81.6084 44.2972 81.4659C44.6321 81.2522 45.0809 80.9459 45.6437 80.5541C46.2136 80.1551 46.7479 79.7277 47.2537 79.2646C47.6313 78.9227 48.0374 78.4667 48.479 77.911C48.9136 77.3554 49.1986 76.9208 49.3268 76.6145H46.1709C46.007 76.6145 45.7434 76.529 45.3587 76.3723C44.9811 76.2155 44.7959 76.0659 44.7959 75.9377C44.7959 75.8522 44.8315 75.7952 44.9028 75.7596C44.974 75.7311 45.0738 75.7168 45.1806 75.7168H51.521C51.692 75.7168 51.806 75.7596 51.8558 75.8593C51.9057 75.9591 51.8986 76.0588 51.8487 76.1657C51.7062 76.4435 51.4355 76.8282 51.0294 77.3197C50.6234 77.8113 50.1888 78.2815 49.7329 78.7232C50.025 78.8799 50.3242 79.0295 50.6376 79.1506C50.9511 79.2789 51.2432 79.3643 51.5068 79.4142C51.6492 79.4498 51.7632 79.457 51.8558 79.4498C51.9484 79.4427 52.0268 79.4855 52.1052 79.5923C52.383 79.9841 52.6039 80.4045 52.7677 80.8604C52.9244 81.3163 52.9031 81.6084 52.6893 81.7224C52.4614 81.8506 52.1194 81.7224 51.6564 81.3448C51.1933 80.9601 50.7445 80.5683 50.3099 80.1765C50.1033 79.9913 49.911 79.8203 49.7258 79.6493C49.5405 79.4855 49.3695 79.3287 49.2057 79.1862ZM49.74 85.1918C49.74 85.2559 49.7614 85.2987 49.797 85.3272C49.8397 85.3485 49.9038 85.3699 49.9965 85.3699H55.5603C56.0305 85.3699 56.2727 85.5195 56.2727 85.8258C56.2727 86.1322 56.0305 86.2889 55.5603 86.2889H49.5263C49.0917 86.2889 48.707 86.2248 48.3579 86.0966C48.016 85.9683 47.845 85.7119 47.845 85.3343V83.5889C47.845 83.2327 47.6384 83.0047 47.2181 82.8979C46.8049 82.7981 46.5983 82.6628 46.5983 82.4847C46.5983 82.3849 46.6339 82.3279 46.698 82.3066C46.7693 82.2852 46.8619 82.271 46.983 82.271H49.569C49.626 82.271 49.6616 82.2852 49.6901 82.3066C49.7186 82.3279 49.7329 82.3636 49.7329 82.4063V85.1847L49.74 85.1918ZM54.0358 77.9609V76.1158C54.0358 75.6741 53.8221 75.4105 53.4017 75.325C52.9743 75.2395 52.7606 75.0828 52.7606 74.8548C52.7606 74.7551 52.8105 74.6981 52.9102 74.6767C53.0099 74.6554 53.1382 74.6411 53.2735 74.6411H55.7171C55.774 74.6411 55.8097 74.6554 55.8382 74.6767C55.8667 74.6981 55.8809 74.7337 55.8809 74.7765V82.3493C55.8809 82.7981 55.8025 83.0973 55.6387 83.2398C55.4748 83.3752 55.2326 83.4535 54.912 83.4535H54.1996C54.1569 83.4535 54.1213 83.4393 54.0928 83.4108C54.0572 83.3823 54.0429 83.3538 54.0429 83.3182V78.8728H52.2975C52.1907 78.8728 51.9627 78.7802 51.6207 78.6092C51.2788 78.4311 51.1007 78.2886 51.1007 78.1818C51.1007 78.0749 51.1363 78.0108 51.2075 77.9965C51.2788 77.9823 51.35 77.9752 51.4284 77.9752H54.05L54.0358 77.9609Z" fill="#231F20"/>
<path d="M68.5971 77.8398V76.1087C68.5971 75.667 68.3905 75.4034 67.956 75.3179C67.5356 75.2325 67.3219 75.0757 67.3219 74.8478C67.3219 74.748 67.3718 74.691 67.4715 74.6697C67.5713 74.6483 67.6995 74.634 67.8349 74.634H70.2784C70.3354 74.634 70.371 74.6483 70.3995 74.6697C70.428 74.691 70.4351 74.7266 70.4351 74.7694V82.4063C70.4351 82.8552 70.3568 83.1544 70.2 83.2897C70.0362 83.4251 69.794 83.4892 69.4734 83.4892H68.761C68.7182 83.4892 68.6755 83.475 68.647 83.4607C68.6114 83.4393 68.5971 83.4037 68.5971 83.3681V78.7232H67.0583C66.9729 78.7232 66.8517 78.6876 66.6879 78.6306C66.524 78.5736 66.3744 78.4953 66.2319 78.4098V80.7251C66.2319 80.9958 66.1892 81.1953 66.0966 81.3306C66.004 81.466 65.8045 81.5372 65.491 81.5372H64.6005C64.5578 81.5372 64.5151 81.523 64.4794 81.5016C64.4438 81.4802 64.4296 81.4517 64.4296 81.4161V81.0955H61.3876C61.3876 81.2166 61.3306 81.3235 61.2166 81.4232C61.1026 81.523 60.9032 81.58 60.6253 81.58H59.7705C59.7277 81.58 59.685 81.5657 59.6493 81.5515C59.6066 81.5301 59.5924 81.5016 59.5924 81.466V76.871C59.5924 76.5931 59.4214 76.3937 59.0723 76.2726C58.7303 76.1514 58.5522 76.0161 58.5522 75.8522C58.5522 75.7881 58.5807 75.7383 58.6377 75.7169C58.6947 75.6884 58.7588 75.6741 58.8301 75.6741H61.238C61.2879 75.6741 61.3306 75.6884 61.3591 75.7098C61.3876 75.7311 61.4019 75.7596 61.4019 75.8095V77.5193H64.4296V76.5789C64.4296 76.3011 64.2515 76.1016 63.9166 75.9733C63.5747 75.8522 63.4037 75.724 63.4037 75.5958C63.4037 75.5317 63.4251 75.4818 63.4749 75.4533C63.5248 75.4177 63.5818 75.4034 63.6459 75.4034H66.0752C66.1251 75.4034 66.1678 75.4177 66.1963 75.439C66.2248 75.4604 66.2391 75.4889 66.2391 75.5388V77.8541H68.5971V77.8398ZM64.3013 85.1847C64.3013 85.2488 64.3156 85.2916 64.3512 85.3201C64.3868 85.3414 64.4581 85.3628 64.5507 85.3628H70.1217C70.599 85.3628 70.8341 85.5124 70.8341 85.8188C70.8341 86.1251 70.599 86.2818 70.1217 86.2818H64.0876C63.653 86.2818 63.2684 86.2177 62.9193 86.0895C62.5773 85.9612 62.3992 85.7048 62.3992 85.3272V83.5462C62.3992 83.19 62.1926 82.962 61.7794 82.8623C61.3662 82.7625 61.1596 82.6272 61.1596 82.4705C61.1596 82.3707 61.1881 82.3137 61.2665 82.2924C61.3306 82.271 61.4232 82.2567 61.5443 82.2567H64.1304C64.1802 82.2567 64.223 82.271 64.2515 82.2924C64.2728 82.3137 64.2942 82.3422 64.2942 82.385V85.1847H64.3013ZM64.4296 78.3741H61.4019V80.2193H64.4296V78.3741Z" fill="#231F20"/>
<path d="M80.5301 76.7427H83.1303V76.066C83.1303 75.6243 82.9166 75.3678 82.4892 75.2966C82.0689 75.2253 81.848 75.0757 81.848 74.8478C81.848 74.748 81.8979 74.691 82.0047 74.6697C82.1045 74.6483 82.2256 74.634 82.3681 74.634H84.8116C84.8615 74.634 84.9042 74.6483 84.9327 74.6697C84.9612 74.691 84.9755 74.7266 84.9755 74.7694V80.5897C84.9755 81.0385 84.8971 81.3092 84.7332 81.3876C84.5694 81.466 84.3272 81.5087 84.0066 81.5087H83.2942C83.2514 81.5087 83.2158 81.4945 83.1802 81.466C83.1446 81.4375 83.1303 81.409 83.1303 81.3805V79.5354H80.5942C80.2594 79.9628 79.8034 80.3119 79.2192 80.5755C78.6351 80.8391 77.9939 80.9744 77.2958 80.9744C76.2841 80.9744 75.3936 80.7037 74.6456 80.1694C73.8976 79.628 73.52 78.9654 73.52 78.1818C73.52 77.3982 73.8976 76.7142 74.6456 76.1728C75.3936 75.6314 76.277 75.3607 77.2958 75.3607C77.9654 75.3607 78.5852 75.4889 79.1622 75.7383C79.7393 75.9876 80.1952 76.3224 80.5301 76.7356V76.7427ZM75.4506 78.1818C75.4506 78.6591 75.6002 79.1008 75.8994 79.5211C76.1915 79.9414 76.6617 80.148 77.2958 80.148C77.9298 80.148 78.3929 79.9414 78.6921 79.5211C78.9913 79.1008 79.1409 78.652 79.1409 78.1818C79.1409 77.7116 78.9984 77.2272 78.7063 76.814C78.4142 76.4008 77.944 76.1871 77.3029 76.1871C76.6617 76.1871 76.1844 76.3937 75.8994 76.814C75.6074 77.2272 75.4578 77.6831 75.4578 78.1818H75.4506ZM84.8828 85.6834C84.8828 86.0823 84.8259 86.3459 84.7119 86.4742C84.5979 86.6024 84.3485 86.6665 83.9567 86.6665H83.1944C83.1517 86.6665 83.1161 86.6523 83.0805 86.6238C83.0448 86.5953 83.0306 86.5668 83.0306 86.5383V82.9834H77.1248C76.9752 82.9834 76.6902 82.8979 76.277 82.7412C75.8638 82.5773 75.6572 82.4206 75.6572 82.2567C75.6572 82.1998 75.6715 82.1499 75.7071 82.1071C75.7356 82.0573 75.8282 82.0288 75.9636 82.0288H84.719C84.7689 82.0288 84.8116 82.043 84.8401 82.0644C84.8686 82.0858 84.8828 82.1143 84.8828 82.1641V85.6905V85.6834ZM83.1375 77.5976H80.986C81.0074 77.6831 81.0287 77.7757 81.043 77.8755C81.0572 77.9823 81.0644 78.0749 81.0644 78.1747C81.0644 78.2602 81.0644 78.3457 81.0501 78.424C81.0359 78.5024 81.0216 78.5807 81.0003 78.6591H83.1375V77.5905V77.5976Z" fill="#231F20"/>
<path d="M91.43 80.5114L88.958 80.7037C88.8155 80.7251 88.5377 80.6325 88.1174 80.4259C87.7042 80.2193 87.4976 80.0483 87.4976 79.9129C87.4976 79.8132 87.5332 79.7491 87.5902 79.7206C87.6543 79.685 87.7398 79.6707 87.8466 79.6707L96.5451 79.4784C97.0153 79.4641 97.2646 79.5567 97.286 79.7491C97.3074 79.9414 97.1008 80.0625 96.6733 80.1053L93.325 80.3618V81.6583C93.325 82.0145 93.2395 82.2496 93.0828 82.3636C92.9189 82.4776 92.6696 82.5275 92.3276 82.5275H91.5796C91.5369 82.5275 91.5013 82.5132 91.4656 82.4847C91.4372 82.4562 91.4158 82.4277 91.4158 82.3992V80.5042L91.43 80.5114ZM92.4131 74.9119C93.2965 74.9119 94.0659 75.1185 94.7142 75.5317C95.3696 75.9449 95.6973 76.4649 95.6973 77.0776C95.6973 77.6902 95.3696 78.196 94.7142 78.6092C94.0659 79.0296 93.2965 79.2433 92.4131 79.2433C91.5298 79.2433 90.7604 79.0367 90.105 78.6092C89.4495 78.1889 89.1218 77.676 89.1218 77.0776C89.1218 76.4792 89.4495 75.9449 90.105 75.5317C90.7604 75.1185 91.5226 74.9119 92.4131 74.9119ZM93.3393 85.1847C93.3393 85.2488 93.3606 85.2916 93.3891 85.3201C93.4248 85.3414 93.496 85.3628 93.5886 85.3628H99.2807C99.758 85.3628 99.9931 85.5124 99.9931 85.8188C99.9931 86.1251 99.758 86.2818 99.2807 86.2818H93.0828C92.6482 86.2818 92.2635 86.2177 91.9216 86.0895C91.5725 85.9612 91.4015 85.7048 91.4015 85.3272V84.2301C91.4015 83.8739 91.1949 83.6388 90.7817 83.5248C90.3685 83.4108 90.1619 83.2755 90.1619 83.1259C90.1619 83.0333 90.1976 82.9691 90.2617 82.9478C90.3329 82.9264 90.4327 82.9122 90.5466 82.9122H93.1683C93.2253 82.9122 93.2609 82.9193 93.2894 82.9478C93.3179 82.9691 93.3321 83.0048 93.3321 83.0475V85.1847H93.3393ZM91.0097 77.0847C91.0097 77.4266 91.1237 77.7544 91.3445 78.0536C91.5725 78.3528 91.9287 78.5095 92.4131 78.5095C92.8976 78.5095 93.268 78.3599 93.4889 78.0536C93.7097 77.7544 93.8237 77.4266 93.8237 77.0847C93.8237 76.7427 93.7168 76.4293 93.5031 76.1158C93.2894 75.8024 92.9189 75.6456 92.4203 75.6456C91.9216 75.6456 91.5511 75.8024 91.3374 76.1158C91.1166 76.4293 91.0097 76.757 91.0097 77.0847ZM97.7704 81.1098V76.066C97.7704 75.6243 97.5567 75.3678 97.1292 75.2966C96.7018 75.2253 96.4881 75.0757 96.4881 74.8478C96.4881 74.748 96.538 74.691 96.6377 74.6697C96.7446 74.6483 96.8657 74.634 97.001 74.634H99.4446C99.5016 74.634 99.5372 74.6483 99.5657 74.6697C99.5942 74.691 99.6084 74.7266 99.6084 74.7694V82.6771C99.6084 83.133 99.53 83.418 99.3662 83.5462C99.2023 83.6673 98.9601 83.7243 98.6395 83.7243H97.9343C97.8844 83.7243 97.8488 83.7172 97.8132 83.6887C97.7847 83.6602 97.7633 83.6317 97.7633 83.5961V81.9789H95.5477C95.3981 81.9789 95.1488 81.9005 94.7997 81.7367C94.4435 81.5728 94.2725 81.4375 94.2725 81.3164C94.2725 81.2523 94.2939 81.2024 94.3366 81.1596C94.3794 81.124 94.4435 81.1026 94.5147 81.1026H97.7633L97.7704 81.1098Z" fill="#231F20"/>
<defs>
<linearGradient id="paint0_linear_164_760" x1="0.121094" y1="32.4241" x2="49.0276" y2="32.4241" gradientUnits="userSpaceOnUse">
<stop offset="0.4" stop-color="#CCCCCC"/>
<stop offset="1" stop-color="#8B8B8B"/>
</linearGradient>
</defs>
</svg>
