<svg width="18" height="20" viewBox="0 0 18 20" fill="none" xmlns="http://www.w3.org/2000/svg">
<path d="M0.97411 0C1.14552 0.000132395 1.31387 0.0454944 1.46214 0.131505L17.0518 9.15761C17.1994 9.24324 17.3219 9.36615 17.4071 9.51403C17.4923 9.6619 17.5371 9.82956 17.5371 10.0002C17.5371 10.1709 17.4923 10.3385 17.4071 10.4864C17.3219 10.6343 17.1994 10.7572 17.0518 10.8428L1.46214 19.8689C1.3141 19.9546 1.14611 19.9998 0.975063 20C0.804013 20.0002 0.635934 19.9553 0.487731 19.8699C0.339529 19.7845 0.216428 19.6616 0.13081 19.5135C0.0451925 19.3654 7.64981e-05 19.1974 0 19.0263V0.97411C0 0.71576 0.102629 0.467991 0.28531 0.28531C0.467991 0.102629 0.71576 0 0.97411 0ZM9.05143 11.3776L4.66989 15.7592L10.2213 12.5456L9.05241 11.3766L9.05143 11.3776ZM1.94822 4.2705V15.726L7.67599 9.99827L1.94822 4.2705ZM11.966 8.46112L10.4288 10.0002L11.966 11.5364L14.6194 10.0002L11.965 8.4621L11.966 8.46112ZM4.66989 4.23738L9.05338 8.62088L10.2213 7.45194L4.66989 4.23738Z" fill="#99B463"/>
</svg>
