<svg width="22" height="20" viewBox="0 0 22 20" fill="none" xmlns="http://www.w3.org/2000/svg">
<path d="M21.6752 13.2333C21.5003 12.9984 21.2559 12.8242 20.9726 12.7415L20.9631 12.7393C20.8424 12.7049 20.7018 12.6815 20.5569 12.6749H20.5525C20.3989 12.6661 20.2459 12.6669 20.0922 12.6669H17.055L13.0408 5.51815C12.5307 6.0524 12.1773 6.74107 12.058 7.50732L12.055 7.52854C12.0228 7.72468 12.0045 7.95155 12.0045 8.18208C12.0045 8.95053 12.2087 9.6714 12.5651 10.2935L12.5542 10.273L17.3778 18.8634C17.4546 19.0003 17.5307 19.1371 17.6149 19.2689C17.6932 19.3948 17.7788 19.5031 17.8747 19.6026L17.874 19.6019C18.0752 19.8068 18.3416 19.9466 18.6395 19.9883L18.6468 19.989C18.698 19.9963 18.758 20 18.8181 20C19.0662 20 19.2974 19.9312 19.495 19.8119L19.4892 19.8156C19.7446 19.6612 19.9415 19.4328 20.0534 19.1613L20.0571 19.1525C20.123 18.9952 20.161 18.8115 20.161 18.6197C20.161 18.496 20.1449 18.3753 20.1156 18.2611L20.1178 18.2714C20.0776 18.1191 20.0263 17.9874 19.9619 17.863L19.9671 17.874C19.8983 17.7327 19.8207 17.5966 19.7439 17.4605L18.6314 15.4794H20.0907C20.2444 15.4794 20.3974 15.4801 20.5504 15.4713C20.6989 15.4647 20.8394 15.4413 20.9734 15.404L20.9602 15.4069C21.2529 15.3213 21.4981 15.1471 21.6701 14.9158L21.6723 14.9122C21.8443 14.6809 21.9475 14.3896 21.9475 14.0749C21.9475 13.7602 21.8443 13.4682 21.6693 13.2333L21.6723 13.237L21.6752 13.2333ZM2.84763 15.9821L2.1231 17.3544C2.04845 17.4963 1.97307 17.6376 1.90501 17.7847C1.84719 17.9025 1.79669 18.0401 1.76083 18.1828L1.7579 18.1975C1.73083 18.3065 1.71546 18.4316 1.71546 18.5597C1.71546 18.7588 1.75278 18.9498 1.82084 19.1247L1.81718 19.1137C1.92696 19.4028 2.12017 19.6399 2.3668 19.8009L2.37193 19.8046C2.55782 19.9254 2.78469 19.9971 3.02913 19.9971C3.08841 19.9971 3.14622 19.9927 3.20258 19.9846L3.19599 19.9854C3.49751 19.9393 3.75878 19.7936 3.95053 19.5836L3.95126 19.5828C4.0442 19.4811 4.12837 19.3677 4.19936 19.2462L4.20448 19.2367C4.28718 19.0991 4.36109 18.9571 4.43648 18.8151L5.48741 16.8245C5.08343 16.2244 4.4072 15.835 3.63949 15.835C3.3548 15.835 3.08255 15.8885 2.83226 15.9865L2.84763 15.9821ZM8.05694 12.6691L13.6453 2.57538C13.7222 2.43706 13.799 2.29947 13.8686 2.15603C13.9278 2.04113 13.9791 1.9072 14.0157 1.76742L14.0186 1.75351C14.0464 1.64739 14.0618 1.52591 14.0618 1.40003C14.0618 1.20536 14.0237 1.0202 13.9542 0.85041L13.9578 0.859924C13.8437 0.575966 13.6461 0.344702 13.3965 0.191013L13.3907 0.187354C13.1989 0.0695258 12.9677 0 12.7196 0C12.6595 0 12.6003 0.00439125 12.5417 0.0124416L12.5483 0.0117096C12.2431 0.0548888 11.976 0.196868 11.7762 0.403249C11.6811 0.502781 11.5954 0.614022 11.5222 0.732582L11.5171 0.741364C11.433 0.875293 11.3568 1.01361 11.28 1.15193L10.9265 1.79011L10.573 1.15193C10.4962 1.01361 10.4208 0.874561 10.3367 0.741364C10.2583 0.614022 10.1727 0.503513 10.0768 0.403249L10.0776 0.403981C9.87778 0.196868 9.61139 0.0548889 9.31279 0.0124416L9.30547 0.0117096C9.25424 0.00439112 9.19496 0.000731972 9.13495 0.000731972C8.88686 0.000731972 8.65486 0.0702577 8.45799 0.191013L8.46385 0.188086C8.20843 0.345433 8.01083 0.576698 7.89959 0.851142L7.89593 0.860656C7.83006 1.02093 7.79201 1.20609 7.79201 1.40076C7.79201 1.52591 7.80811 1.64813 7.83738 1.76376L7.83519 1.75351C7.87544 1.9072 7.92667 2.04113 7.99107 2.16774L7.98595 2.15603C8.05474 2.29874 8.13232 2.43706 8.20916 2.57538L9.35085 4.637L4.90413 12.6691H1.8567C1.70375 12.6691 1.55006 12.6683 1.3971 12.6778C1.24854 12.6844 1.10802 12.7078 0.974093 12.7466L0.987266 12.7437C0.693794 12.8308 0.449356 13.0072 0.278103 13.2414L0.275176 13.245C0.103191 13.4799 0 13.7749 0 14.0932C0 14.4116 0.103191 14.7065 0.278103 14.9458L0.275176 14.9415C0.448624 15.1793 0.693062 15.3557 0.97702 15.4398L0.986534 15.442C1.10729 15.4772 1.2478 15.5006 1.39198 15.5072H1.39637C1.54933 15.516 1.70302 15.5152 1.85597 15.5152H13.8342C13.8671 15.4472 13.8978 15.3652 13.9227 15.2803L13.9256 15.2686C13.9827 15.0907 14.0157 14.8858 14.0157 14.6736C14.0157 13.5853 13.1484 12.6991 12.0675 12.6683H12.0645L8.05694 12.6691Z" fill="#CCCCCC"/>
</svg>
