<svg width="42" height="42" viewBox="0 0 42 42" fill="none" xmlns="http://www.w3.org/2000/svg">
<path d="M40.6477 1.03992C40.9179 1.3113 41.1322 1.63368 41.2785 1.98861C41.4247 2.34354 41.5 2.72403 41.5 3.1083C41.5 3.49257 41.4247 3.87307 41.2785 4.228C41.1322 4.58292 40.9179 4.90531 40.6477 5.17668L25.289 20.637L40.6477 36.0972C40.9174 36.3688 41.1314 36.6913 41.2774 37.0462C41.4233 37.4011 41.4985 37.7815 41.4985 38.1656C41.4985 38.5497 41.4233 38.9301 41.2774 39.285C41.1314 39.6399 40.9174 39.9624 40.6477 40.234C40.3779 40.5056 40.0577 40.7211 39.7053 40.8681C39.3529 41.0151 38.9751 41.0907 38.5937 41.0907C38.2122 41.0907 37.8345 41.0151 37.482 40.8681C37.1296 40.7211 36.8094 40.5056 36.5396 40.234L21.1867 24.7679L5.83384 40.234C5.5641 40.5056 5.24388 40.7211 4.89145 40.8681C4.53902 41.0151 4.16129 41.0907 3.77982 41.0907C3.39836 41.0907 3.02063 41.0151 2.6682 40.8681C2.31577 40.7211 1.99554 40.5056 1.72581 40.234C1.45607 39.9624 1.2421 39.6399 1.09612 39.285C0.95014 38.9301 0.875007 38.5497 0.875007 38.1656C0.875007 37.7815 0.95014 37.4011 1.09612 37.0462C1.2421 36.6913 1.45607 36.3688 1.72581 36.0972L17.0845 20.637L1.72581 5.17668C1.45607 4.90506 1.2421 4.5826 1.09612 4.2277C0.950141 3.87281 0.875009 3.49244 0.875009 3.1083C0.875009 2.72417 0.950141 2.34379 1.09612 1.9889C1.2421 1.63401 1.45607 1.31154 1.72581 1.03992C1.99555 0.768297 2.31577 0.552833 2.6682 0.405831C3.02063 0.258829 3.39836 0.183169 3.77982 0.183169C4.16129 0.183169 4.53902 0.25883 4.89145 0.405831C5.24388 0.552833 5.5641 0.768297 5.83384 1.03992L21.1867 16.506L36.5396 1.03992C36.8091 0.767858 37.1293 0.552005 37.4817 0.404727C37.8342 0.257448 38.2121 0.18164 38.5937 0.18164C38.9753 0.181641 39.3531 0.257448 39.7056 0.404727C40.058 0.552005 40.3782 0.767859 40.6477 1.03992Z" fill="white"/>
</svg>
