<svg width="35" height="18" viewBox="0 0 35 18" fill="none" xmlns="http://www.w3.org/2000/svg">
<path fill-rule="evenodd" clip-rule="evenodd" d="M34.6046 0.377063C34.7299 0.496285 34.8294 0.637916 34.8972 0.793843C34.9651 0.94977 35 1.11693 35 1.28575C35 1.45457 34.9651 1.62173 34.8972 1.77766C34.8294 1.93358 34.7299 2.07522 34.6046 2.19444L18.4526 17.5959C18.3276 17.7154 18.179 17.8103 18.0155 17.875C17.852 17.9397 17.6767 17.973 17.4996 17.973C17.3226 17.973 17.1473 17.9397 16.9838 17.875C16.8202 17.8103 16.6717 17.7154 16.5467 17.5959L0.394733 2.19444C0.141991 1.95344 -7.10998e-08 1.62657 -5.62019e-08 1.28575C-4.1304e-08 0.944925 0.141991 0.61806 0.394733 0.377061C0.647475 0.136062 0.990267 0.000670489 1.3477 0.000670505C1.70513 0.00067052 2.04792 0.136063 2.30066 0.377061L17.4996 14.8724L32.6986 0.377063C32.8237 0.257539 32.9722 0.16271 33.1357 0.0980068C33.2992 0.033304 33.4746 -6.66794e-08 33.6516 -5.89405e-08C33.8286 -5.12016e-08 34.0039 0.0333041 34.1675 0.0980068C34.331 0.16271 34.4795 0.257539 34.6046 0.377063V0.377063Z" fill="white"/>
</svg>
