<svg width="450" height="600" viewBox="0 0 450 600" fill="none" xmlns="http://www.w3.org/2000/svg">
<g clip-path="url(#clip0_320_456)">
<path d="M356.93 125.454L335.408 93.1226L373.314 67.8903L394.836 100.222L356.93 125.454ZM359.083 116.244L385.509 98.654L371.161 77.0997L344.735 94.6902L359.083 116.244Z" fill="#F4F4F4"/>
<path d="M378.365 490.806L380.611 499.399L325.78 513.734L338.189 561.198L416.665 540.681L411.53 521.041L354.66 535.909L352.414 527.316L407.245 512.981L394.836 465.517L318.398 485.501L323.533 505.142L378.365 490.806Z" fill="#F4F4F4"/>
<path d="M493.103 520.696L473.312 445L404.009 463.119L409.25 483.168L456.948 470.698L471.496 526.345L493.103 520.696Z" fill="#F4F4F4"/>
<path d="M49.1239 441.502L138.072 398.695L152.027 427.691L-55.9048 527.759L-69.8593 498.763L18.5117 456.234L0.37099 418.539L30.9832 403.807L49.1239 441.502ZM10.603 595.744C6.04454 586.272 3.74023 576.31 3.69005 565.859C3.63987 555.408 5.54532 545.325 9.40641 535.61C13.3605 526.089 19.0745 517.268 26.5484 509.148C34.0222 501.027 43.0537 494.419 53.6428 489.323C64.2319 484.227 75.031 481.292 86.0399 480.517C97.0489 479.742 107.507 480.78 117.415 483.63C127.416 486.674 136.485 491.476 144.622 498.035C152.951 504.502 159.394 512.472 163.953 521.944C168.604 531.609 170.859 541.714 170.716 552.258C170.673 562.516 168.675 572.405 164.721 581.927C160.86 591.642 155.192 600.559 147.718 608.679C140.245 616.8 131.213 623.408 120.624 628.504C110.035 633.6 99.2359 636.535 88.2269 637.31C77.2179 638.084 66.7129 636.95 56.7119 633.907C46.8039 631.056 37.8282 626.448 29.7848 620.082C21.6484 613.522 15.2545 605.409 10.603 595.744ZM41.2152 581.012C43.913 586.618 47.6265 591.378 52.3556 595.292C56.9917 599.013 62.3114 601.69 68.3146 603.325C74.1252 605.052 80.3339 605.635 86.9406 605.074C93.7398 604.421 100.316 602.565 106.67 599.508C113.023 596.45 118.48 592.515 123.04 587.701C127.792 582.795 131.403 577.487 133.871 571.775C136.146 566.157 137.276 560.375 137.261 554.431C137.345 548.2 136.038 542.282 133.34 536.676C130.643 531.07 126.879 526.453 122.051 522.825C117.322 518.911 112.052 516.09 106.241 514.363C100.238 512.729 93.8367 512.238 87.0374 512.892C80.4308 513.452 73.9507 515.261 67.5972 518.319C61.2438 521.377 55.6907 525.359 50.9382 530.265C46.3782 535.078 42.9604 540.294 40.6848 545.913C38.2167 551.624 37.0369 557.548 37.1453 563.686C37.1607 569.631 38.5173 575.406 41.2152 581.012Z" fill="#F4F4F4"/>
<path d="M-17.0001 131.834L-8.14038 117.503L115.956 194.222L107.096 208.553L-17.0001 131.834ZM50.8035 135.72C49.0316 138.586 46.5634 140.427 43.3991 141.244C40.2347 142.061 37.1134 141.518 34.035 139.615C30.9567 137.712 29.0757 135.162 28.3921 131.967C27.7085 128.771 28.2526 125.74 30.0246 122.874C31.7966 120.007 34.2647 118.166 37.429 117.349C40.5934 116.532 43.7147 117.075 46.7931 118.978C49.8715 120.881 51.7524 123.431 52.436 126.626C53.1196 129.822 52.5755 132.853 50.8035 135.72ZM94.0929 162.482C92.321 165.348 89.8528 167.19 86.6885 168.007C83.5241 168.823 80.4028 168.28 77.3244 166.377C74.2461 164.474 72.3651 161.925 71.6815 158.729C70.9979 155.533 71.5421 152.502 73.314 149.636C75.086 146.77 77.5541 144.928 80.7185 144.111C83.8828 143.294 87.0041 143.837 90.0825 145.74C93.1609 147.644 95.0418 150.193 95.7254 153.389C96.4091 156.585 95.8649 159.616 94.0929 162.482Z" fill="#F4F4F4"/>
</g>
<defs>
<clipPath id="clip0_320_456">
<rect width="450" height="600" fill="white"/>
</clipPath>
</defs>
</svg>
