<svg width="1980" height="530" viewBox="0 0 1980 530" fill="none" xmlns="http://www.w3.org/2000/svg">
<g clip-path="url(#clip0_320_369)">
<path d="M1705.18 316.798L1709.68 334.018L1599.79 362.747L1624.66 457.867L1781.93 416.75L1771.64 377.39L1657.67 407.187L1653.17 389.967L1763.05 361.238L1738.19 266.118L1585 306.167L1595.29 345.527L1705.18 316.798Z" fill="#F9F9F9"/>
<path d="M1935.12 376.7L1895.46 225L1756.57 261.312L1767.07 301.492L1862.66 276.501L1891.82 388.021L1935.12 376.7Z" fill="#F9F9F9"/>
<path d="M1259.02 19.4573L1239.4 30.7823L1294.17 74.786L1285.53 86.2135L1249.74 56.1903L1259.05 101.499L1249.35 102.757L1243.41 110.531L1208.82 79.813L1216.93 125.816L1202.71 127.59L1191.99 58.1569L1172.37 69.4818L1165.41 57.4141L1206.32 33.7915L1213.29 45.8592L1198.37 54.4745L1242.8 91.413L1233.03 34.4647L1218.1 43.08L1211.14 31.0123L1252.05 7.38963L1259.02 19.4573Z" fill="#F4F4F4"/>
<path d="M191 144.404L197.316 126.448L352.8 181.141L346.484 199.097L191 144.404ZM266.767 132.314C265.504 135.906 263.225 138.534 259.93 140.2C256.635 141.866 253.059 142.02 249.202 140.664C245.345 139.307 242.654 136.948 241.127 133.586C239.601 130.224 239.469 126.748 240.733 123.156C241.996 119.565 244.275 116.937 247.57 115.271C250.865 113.605 254.441 113.45 258.298 114.807C262.154 116.164 264.846 118.523 266.372 121.885C267.899 125.247 268.03 128.723 266.767 132.314ZM321.006 151.393C319.742 154.985 317.463 157.613 314.169 159.279C310.874 160.945 307.298 161.099 303.441 159.743C299.584 158.386 296.892 156.027 295.366 152.665C293.84 149.303 293.708 145.827 294.971 142.235C296.234 138.644 298.513 136.016 301.808 134.35C305.103 132.684 308.679 132.529 312.536 133.886C316.393 135.243 319.085 137.602 320.611 140.964C322.137 144.326 322.269 147.802 321.006 151.393Z" fill="#F4F4F4"/>
<path d="M123.004 326.272L229.041 371.377L214.337 405.944L-33.5412 300.503L-18.8375 265.936L86.5107 310.749L105.626 265.812L142.119 281.336L123.004 326.272ZM-42.0054 411.201C-37.2022 399.91 -30.2341 390.219 -21.1012 382.13C-11.9682 374.041 -1.65304 367.951 9.84438 363.861C21.2438 360.002 33.3831 358.226 46.2624 358.534C59.1417 358.842 71.893 361.68 84.5164 367.05C97.1398 372.42 108.029 379.637 117.183 388.702C126.337 397.766 133.477 407.743 138.603 418.632C143.631 429.751 146.398 441.406 146.905 453.596C147.641 465.883 145.608 477.672 140.805 488.964C135.904 500.486 128.772 510.243 119.409 518.235C110.374 526.094 100.157 531.953 88.7578 535.812C77.2603 539.902 65.072 541.793 52.1927 541.485C39.3134 541.178 26.5621 538.339 13.9387 532.969C1.31525 527.6 -9.57363 520.382 -18.728 511.318C-27.8823 502.253 -34.9734 492.161 -40.0012 481.042C-45.127 470.153 -47.9923 458.729 -48.5971 446.769C-49.1038 434.58 -46.9066 422.724 -42.0054 411.201ZM-5.5122 426.725C-8.35492 433.408 -9.6735 440.331 -9.46794 447.494C-9.16435 454.426 -7.41911 461.156 -4.23221 467.682C-1.27482 474.111 2.99273 480.008 8.57044 485.374C14.3777 490.838 21.0683 495.181 28.6424 498.403C36.2164 501.624 43.8706 503.384 51.6048 503.68C59.5686 504.074 67.0064 503.156 73.9183 500.925C80.6006 498.597 86.5441 495.138 91.749 490.549C97.2813 485.826 101.469 480.124 104.312 473.441C107.154 466.758 108.309 459.902 107.776 452.871C107.57 445.708 105.989 438.912 103.032 432.484C99.8447 425.957 95.3476 419.962 89.5404 414.498C83.9627 409.132 77.3868 404.838 69.8127 401.617C62.2387 398.395 54.4698 396.587 46.506 396.193C38.7717 395.896 31.5634 396.912 24.8811 399.24C17.9693 401.471 11.8619 404.996 6.5591 409.816C1.35428 414.406 -2.66949 420.042 -5.5122 426.725Z" fill="#F4F4F4"/>
<path d="M1708 108.603L1734.48 57L1794.98 88.0432L1768.5 139.647L1708 108.603ZM1721.58 104.704L1763.75 126.345L1781.4 91.9429L1739.23 70.3014L1721.58 104.704Z" fill="#F4F4F4"/>
</g>
<defs>
<clipPath id="clip0_320_369">
<rect width="1980" height="530" fill="white"/>
</clipPath>
</defs>
</svg>
