<svg width="780" height="600" viewBox="0 0 780 600" fill="none" xmlns="http://www.w3.org/2000/svg">
<g clip-path="url(#clip0_320_419)">
<path d="M11.9998 131.96L17.5907 116.066L155.22 164.479L149.629 180.373L11.9998 131.96ZM79.0663 121.259C77.9482 124.438 75.9308 126.765 73.0143 128.239C70.0978 129.714 66.9325 129.851 63.5184 128.65C60.1044 127.449 57.7218 125.36 56.3707 122.385C55.0197 119.409 54.9032 116.332 56.0214 113.153C57.1396 109.974 59.1569 107.647 62.0735 106.173C64.99 104.698 68.1553 104.561 71.5693 105.762C74.9834 106.963 77.3659 109.052 78.717 112.027C80.0681 115.003 80.1845 118.08 79.0663 121.259ZM127.077 138.147C125.958 141.326 123.941 143.653 121.025 145.127C118.108 146.602 114.943 146.739 111.529 145.538C108.115 144.337 105.732 142.248 104.381 139.273C103.03 136.297 102.913 133.22 104.032 130.041C105.15 126.862 107.167 124.535 110.084 123.061C113 121.586 116.166 121.449 119.58 122.65C122.994 123.851 125.376 125.94 126.727 128.915C128.078 131.891 128.195 134.968 127.077 138.147Z" fill="#F4F4F4"/>
<path d="M97.1137 430.442L183.177 467.051L171.243 495.106L-29.9433 409.527L-18.0093 381.472L67.4947 417.843L83.0089 381.371L112.628 393.97L97.1137 430.442ZM-36.8131 499.374C-32.9147 490.209 -27.2592 482.344 -19.8466 475.778C-12.434 469.213 -4.06188 464.27 5.2698 460.951C14.5219 457.818 24.3746 456.377 34.8278 456.627C45.2811 456.877 55.6305 459.181 65.876 463.539C76.1216 467.897 84.9594 473.755 92.3893 481.112C99.8193 488.469 105.614 496.567 109.775 505.404C113.855 514.429 116.101 523.888 116.513 533.782C117.11 543.755 115.46 553.324 111.561 562.488C107.583 571.84 101.795 579.759 94.1962 586.245C86.8631 592.624 78.5706 597.379 69.3184 600.512C59.9868 603.831 50.0943 605.366 39.6411 605.116C29.1879 604.866 18.8384 602.562 8.59287 598.204C-1.65271 593.846 -10.4905 587.988 -17.9204 580.631C-25.3504 573.274 -31.1057 565.083 -35.1864 556.058C-39.3467 547.22 -41.6723 537.948 -42.1632 528.242C-42.5745 518.348 -40.7911 508.725 -36.8131 499.374ZM-7.1941 511.973C-9.50133 517.397 -10.5715 523.016 -10.4047 528.83C-10.1583 534.456 -8.7418 539.918 -6.15521 545.215C-3.7549 550.433 -0.291217 555.219 4.23584 559.575C8.94917 564.009 14.3795 567.534 20.5269 570.149C26.6742 572.764 32.8866 574.192 39.1639 574.432C45.6276 574.752 51.6644 574.007 57.2742 572.196C62.6978 570.307 67.5218 567.499 71.7462 563.774C76.2365 559.942 79.6352 555.313 81.9424 549.889C84.2497 544.465 85.1869 538.9 84.7543 533.194C84.5874 527.38 83.3038 521.865 80.9035 516.647C78.3169 511.35 74.667 506.484 69.9536 502.05C65.4266 497.694 60.0894 494.209 53.942 491.594C47.7947 488.979 41.4892 487.512 35.0255 487.192C28.7482 486.951 22.8977 487.776 17.4741 489.666C11.8642 491.476 6.90732 494.337 2.60336 498.249C-1.62104 501.974 -4.88686 506.549 -7.1941 511.973Z" fill="#F4F4F4"/>
<path d="M671.701 348.951L674.2 358.508L613.21 374.454L627.013 427.248L714.303 404.427L708.591 382.581L645.335 399.119L642.836 389.561L703.825 373.616L690.023 320.822L605 343.05L610.712 364.896L671.701 348.951Z" fill="#F4F4F4"/>
<path d="M799.325 382.198L777.312 298L700.225 318.154L706.056 340.455L759.11 326.585L775.292 388.481L799.325 382.198Z" fill="#F4F4F4"/>
<path d="M605 126.556L622.73 92L663.244 112.788L645.513 147.344L605 126.556ZM614.09 123.945L642.334 138.437L654.154 115.399L625.91 100.907L614.09 123.945Z" fill="#F4F4F4"/>
</g>
<defs>
<clipPath id="clip0_320_419">
<rect width="780" height="600" fill="white"/>
</clipPath>
</defs>
</svg>
