<svg xmlns="http://www.w3.org/2000/svg" xml:space="preserve" x="0px" y="0px" baseProfile="tiny" overflow="visible" version="1.2" viewBox="0 0 2048 463.5"><path fill="#FFF" d="M454.604 238.41c0 93.048-75.438 168.479-168.479 168.479-93.05 0-168.479-75.431-168.479-168.479 0-93.043 75.429-168.474 168.479-168.474 93.042 0 168.479 75.431 168.479 168.474z"/><path fill="#003764" d="M365.202 226.667c-26.798-18.213-61.107-10.796-79.147 16.587-15.005 22.888-37.716 25.736-46.464 25.736-28.694 0-48.271-20.169-54.09-41.028 0 0-.284-1.056-.359-1.295-2.287-8.719-2.866-12.86-2.866-22.112 0-49.855 51.192-105.391 124.859-105.391 75.471 0 118.663 57.451 129.824 89.389-.223-.6-.405-1.135-.587-1.698-21.411-62.459-80.63-107.352-150.391-107.352-87.713 0-158.865 71.115-158.865 158.902 0 78.448 56.581 145.591 135.081 145.591 62.577 0 104.65-35.084 123.922-83.461 10.597-26.469 3.113-57.548-20.917-73.868z"/><path fill="#E4032E" d="M437.932 191.638c-9.309-31.158-52.78-92.474-130.796-92.474-73.667 0-124.859 55.536-124.859 105.391 0 9.252.578 13.393 2.866 22.112-.958-3.819-1.446-7.62-1.446-11.337 0-51.936 51.989-87.913 105.439-87.913 72.375 0 131.031 58.658 131.031 131.002 0 56.71-32.644 105.831-80.049 129.409v.044c61.134-22.141 104.789-80.702 104.789-149.467-.001-16.275-2.183-30.629-6.975-46.767z"/><g fill="#575757"><path d="M629.038 279.848v16.437h-96.741v-16.437h30.477v-49.141h18.322v49.141h47.942zm-27.568-17.465v-75.679h-63.693v-16.438h82.014v92.117H601.47zm57.531 48.798H640.51V162.047h18.491v62.838h19.177v17.635h-19.177v68.661zM775.086 171.464v15.923h-86.981v-15.923h34.073v-12.499h19.691v12.499h33.217zm-80.816 88.864h117.458v49.484h-18.493v-33.047H694.27v-16.437zm72.256-38.182c0 4.34-.915 8.449-2.74 12.328-1.828 3.881-4.28 7.249-7.363 10.101-3.197 2.856-6.849 5.137-10.959 6.85-4.109 1.712-8.56 2.568-13.355 2.568s-9.276-.857-13.441-2.568c-4.168-1.713-7.85-3.994-11.044-6.85-3.082-2.851-5.538-6.22-7.363-10.101-1.827-3.879-2.74-7.988-2.74-12.328 0-4.337.913-8.447 2.74-12.328 1.825-3.879 4.28-7.248 7.363-10.102 3.194-2.851 6.875-5.137 11.044-6.849 4.165-1.712 8.647-2.568 13.441-2.568s9.246.857 13.355 2.568c4.11 1.712 7.762 3.997 10.959 6.849 3.082 2.854 5.535 6.223 7.363 10.102 1.825 3.881 2.74 7.991 2.74 12.328zm-17.636-.171c0-4.452-1.657-8.276-4.966-11.471-3.312-3.194-7.249-4.794-11.814-4.794-4.566 0-8.475 1.6-11.729 4.794-3.252 3.196-4.879 7.02-4.879 11.471 0 4.452 1.627 8.277 4.879 11.471 3.254 3.197 7.163 4.794 11.729 4.794 4.565 0 8.502-1.597 11.814-4.794 3.309-3.194 4.966-7.02 4.966-11.471zm62.838 29.963h-18.493v-89.89h18.493v34.928h21.402v18.322h-21.402v36.64zM921.821 291.662H903.33v-103.76h-57.189v-16.608h75.68v120.368zm37.326-129.615h18.493v149.134h-18.493V162.047zM1062.22 246.631v-11.473h-59.072V219.92h136.977v15.238h-59.242v11.473h48.284v37.839h-96.74v9.076h98.795v15.066h-117.115v-38.696h96.74v-8.56h-96.74v-14.725h48.113zm9.417-66.949-52.222 36.813-10.959-12.841 63.181-44.518 63.18 44.518-10.958 12.841-52.222-36.813zM1158.788 182.251v-15.923h85.61v15.923h-36.47l38.011 46.401-13.013 10.616-30.477-38.011-30.306 40.579-13.526-10.959 37.839-48.627h-37.668zm118.484 97.254c0 5.025-1.028 9.733-3.082 14.126s-4.794 8.246-8.218 11.558c-3.54 3.309-7.678 5.934-12.413 7.877-4.739 1.94-9.733 2.91-14.983 2.91-5.251 0-10.274-.97-15.068-2.91-4.794-1.943-8.961-4.568-12.498-7.877-3.425-3.312-6.165-7.164-8.219-11.558s-3.082-9.101-3.082-14.126c0-5.021 1.028-9.76 3.082-14.211s4.794-8.331 8.219-11.643c3.537-3.31 7.704-5.934 12.498-7.877 4.794-1.94 9.816-2.911 15.068-2.911 5.25 0 10.244.971 14.983 2.911 4.734 1.943 8.873 4.566 12.413 7.877 3.424 3.312 6.163 7.191 8.218 11.643s3.082 9.19 3.082 14.211zm-18.149-.171c0-5.591-2.054-10.415-6.165-14.467-4.109-4.051-8.963-6.078-14.554-6.078-5.594 0-10.418 2.028-14.468 6.078-4.054 4.052-6.078 8.876-6.078 14.467 0 5.594 2.025 10.388 6.078 14.383 4.049 3.996 8.873 5.993 14.468 5.993 5.591 0 10.445-1.998 14.554-5.993 4.11-3.995 6.165-8.789 6.165-14.383zm12.327-38.183v-32.36h-27.737v-15.924h27.737v-30.82h18.493v79.104h-18.493zM1423.149 191.326v-22.944h18.322v85.269h-48.284v30.136h59.243v16.437h-136.978v-16.437h59.072v-30.136h-48.113v-85.269h18.32v22.944h78.418zm0 46.058v-29.963h-78.419v29.963h78.419zM1482.561 224.029v-60.44h114.889v15.066h-96.398v7.877h95.712v14.554h-95.712v8.218h96.912v14.725h-48.626v9.588h59.242v15.239h-136.977v-15.239h59.071v-9.588h-48.113zm94 60.955c0 4.452-.916 8.647-2.738 12.584-1.828 3.939-4.396 7.449-7.705 10.531-3.425 2.966-7.336 5.333-11.729 7.105-4.395 1.768-9.161 2.655-14.298 2.655-5.024 0-9.76-.886-14.211-2.655-4.452-1.771-8.334-4.139-11.643-7.105-3.425-3.082-6.052-6.592-7.877-10.531-1.828-3.938-2.74-8.133-2.74-12.584 0-4.565.912-8.818 2.74-12.756 1.825-3.939 4.452-7.449 7.877-10.531 3.309-2.966 7.191-5.333 11.643-7.105 4.452-1.768 9.188-2.655 14.211-2.655 5.137 0 9.903.886 14.298 2.655 4.393 1.771 8.304 4.139 11.729 7.105 3.309 3.082 5.877 6.592 7.705 10.531 1.822 3.938 2.738 8.192 2.738 12.756zm-18.32-.171c0-4.906-1.798-9.101-5.393-12.584-3.596-3.482-7.85-5.223-12.757-5.223-4.909 0-9.159 1.742-12.756 5.223-3.596 3.483-5.393 7.678-5.393 12.584 0 4.909 1.797 9.104 5.393 12.584 3.596 3.482 7.847 5.223 12.756 5.223 4.907 0 9.161-1.742 12.757-5.223 3.595-3.48 5.393-7.675 5.393-12.584zM1672.442 161.191l47.087 76.022-15.068 9.419-32.019-53.421-31.675 54.619-15.411-9.417 47.086-77.222zm-34.929 147.08v-49.826h18.493v33.388h103.76v16.438h-122.253zm102.391-50.683v-95.541h18.491v95.541h-18.491zM1783.906 256.391h136.978v16.437h-59.244v38.353h-18.663v-38.353h-59.072v-16.437zm29.279-72.941h78.419v-18.834h18.322v71.741h-115.06v-71.741h18.32v18.834zm78.419 16.094h-78.419v20.547h78.419v-20.547z"/></g></svg>