<svg xmlns="http://www.w3.org/2000/svg" xml:space="preserve" x="0px" y="0px" style="enable-background:new 0 0 109.1 28.9" viewBox="0 0 109.1 28.9"><path d="M96.8 17.1c-.1 0-.4 0-.4.3 0 .1 0 .3.3.3h.4c.1 0 .2.1.2.4v2.5c0 .2.1.5.2.6.2.2.4.2.7.2h8.8v-1.2h-7.5v-3.1h-2.7zM103.1 16c.6 0 1.1-.2 1.6-.4V18h2.1v-5.7h2.3V11h-2.3V8h-2.6c-.1 0-.4 0-.4.2 0 .1 0 .3.3.3h.4c.1 0 .2.1.2.4v5.3c-.5.3-1.1.5-1.6.4h-.7c.2-.2.3-.5.5-.8.1-.4.2-.7.2-1.1V9.3c0-.2-.1-.5-.2-.6-.2-.2-.4-.3-.7-.2H95l.7 1.3h5.3V13c0 .3 0 .7-.1 1-.1.3-.1.5-.2.8v.1h-1.3V12h-2.6c-.1 0-.4 0-.4.2 0 .1 0 .3.3.3h.4c.1 0 .2.1.2.4v2h-3L95 16h8.1zM82.8 8.3c-.1 0-.4 0-.4.2 0 .1 0 .3.3.3h.4c.1 0 .2.1.2.4v1.4c0 1.3-.4 2.5-1.2 3.5-.6.8-1.5 1.5-2.5 1.7l.8 1c.9-.1 1.7-.5 2.4-1.1.6-.5 1.2-1.1 1.6-1.7.4.7.9 1.3 1.5 1.7.7.6 1.5 1 2.4 1.1l.8-1c-1-.3-1.9-.9-2.5-1.7-.8-1-1.2-2.2-1.2-3.5V8.3h-2.6zM49.9 14.3V13h-2.1c.1-.3.3-.6.3-.9.1-.4.2-.8.2-1.2V9c0-.3-.1-.5-.2-.7-.2-.2-.4-.3-.7-.2h-10l.6 1.2h8.1V11c0 .4 0 .7-.1 1.1 0 .3-.1.6-.2.9H35.7l.7 1.3h5.5v2.3h-4.6l.7 1.3h8.2v3.7h2.1v-4c0-.2-.1-.5-.2-.6-.2-.2-.4-.3-.7-.2H44v-2.3h5.9zM60.4 9.3h-3.1V7.8h-2.6c-.1 0-.4 0-.4.3 0 .1 0 .3.3.3h.4c.1 0 .2.1.2.4v.6h-4l.7 1.3h1.7c-.7.5-1.1 1.3-1.1 2.2.1 1.5 1.3 2.8 2.8 3V17h-4.2l.7 1.3h8.5c.6 0 1.1-.2 1.7-.4v3.8h2.1V8h-2.6c-.1 0-.4 0-.4.2 0 .1 0 .3.3.3h.4c.1 0 .2.1.3.4v7.5c-.5.3-1.1.5-1.6.5h-2.8v-1.1c1.5-.2 2.7-1.5 2.8-3 0-.9-.4-1.7-1.1-2.2h1.5l-.5-1.3zm-5.9 3.5c-.1-1 .6-1.8 1.5-2 1-.1 1.8.6 2 1.5v.5c.1 1-.6 1.8-1.5 2-1 .1-1.8-.6-2-1.5v-.5zM67.4 8.3c-.1 0-.4 0-.4.3 0 .1 0 .3.3.3h.4c.1 0 .2.1.2.4v5.3c0 .2.1.5.2.6.2.2.4.2.6.2h3.2v3h-5.8l.7 1.3h12.5v-1.3H74v-3h4.2v-1.3h-8.3V9.6h8V8.3H67.4z" style="fill:#69737a"/><path d="M89.6 8c-.1 0-.4 0-.4.2 0 .1 0 .3.3.3h.4c.1 0 .2.1.2.4V11h-2.9v1.3h2.9v9.2h2.1V8h-2.6z" style="fill:#69737a"/><path d="M17 13.7s4.9-3.2 12.5-1.4c-1 .2-1.8.7-2.5 1.4-3.1-1-6.7-1-10 0z" style="fill:#4f87c6"/><path d="M16.6 13.7S21 7 28 6.8c-.9.5-1.6 1.4-2 2.4 0 0-6.1.6-9.4 4.5z" style="fill:#659ad2"/><path d="M16 13.7s2.1-8.2 7.8-11.3c-1 1.1-1.5 2.5-1.6 3.9-2.9 1.6-5.1 4.3-6.2 7.4z" style="fill:#95b5df"/><path d="M15.6 13.8S15.3 4.1 18.4 0c-.7 1.5-.8 3.2-.3 4.7-.1 0-2.1 2.8-2.5 9.1z" style="fill:#c7d6ee"/><path d="M12.5 13.7S7.6 10.5 0 12.3c1 .2 1.8.7 2.5 1.4 3.2-1 6.8-1 10 0z" style="fill:#4f87c6"/><path d="M13 13.7S8.6 7 1.6 6.8c.9.5 1.6 1.4 2 2.4 0 0 6 .6 9.4 4.5z" style="fill:#659ad2"/><path d="M13.6 13.7S11.5 5.5 5.8 2.4c1 1.1 1.5 2.5 1.6 3.9 2.9 1.6 5 4.3 6.2 7.4z" style="fill:#95b5df"/><path d="M14 13.8s.3-9.7-2.7-13.8c.7 1.5.8 3.2.4 4.7-.1 0 1.9 2.8 2.3 9.1z" style="fill:#c7d6ee"/><path d="M.6 14.7h12.1c.5.7 1.3 1.1 2.1 1 .8.1 1.6-.3 2-1h12.1v.5H17.2c-.6.7-1.5 1.1-2.4 1-.9.1-1.8-.3-2.4-1H.6v-.5z" style="fill:#0066a6"/><path d="M17.4 15.7c-.7.7-1.7 1-2.7 1-1 .1-1.9-.3-2.6-1H.6c.6 7.8 7.4 13.7 15.2 13.2 7-.5 12.6-6.1 13.1-13.1H17.4zm-6.3 2.8h7.4v.3h-7.4v-.3zm-1.7.6h10.8v.4H9.4v-.4zm10.3.6v.2H9.9v-.2h9.8zm.9 4.7H8.9v-.5h.4v-3.7h1.8v3.7h.6v-3.3h-.4v-.4h6.8v.4h-.4v3.3h.6v-3.7h1.8v3.7h.4l.1.5z" style="fill:#0066a6"/><path d="M17.1 20.5h.6v3.3h-.6zM14.1 20.5h.6v3.3h-.6zM14.9 20.5h.6v3.3h-.6zM15.6 20.5h.6v3.3h-.6zM16.3 20.5h.6v3.3h-.6zM13.4 20.5h.6v3.3h-.6zM11.9 20.5h.6v3.3h-.6zM12.7 20.5h.6v3.3h-.6z" style="fill:#0060a0"/><path d="M28.9 14.8C28.9 7 22.6.7 14.8.7 6.9.6.6 7 .6 14.8s6.3 14.1 14.1 14.1c7.9 0 14.2-6.3 14.2-14.1z" style="fill:none"/></svg>