<svg width="86" height="35" viewBox="0 0 86 35" fill="none" xmlns="http://www.w3.org/2000/svg">
<path fill-rule="evenodd" clip-rule="evenodd" d="M48.7709 35L84.6695 35C84.9003 35.0002 85.1273 34.9344 85.328 34.8092C85.5286 34.6839 85.6961 34.5035 85.8139 34.2857C85.9317 34.0679 85.9958 33.8202 85.9998 33.567C86.0038 33.3138 85.9476 33.0638 85.8368 32.8417L78.2051 17.5L85.8368 2.15833C85.9476 1.93616 86.0038 1.68618 85.9998 1.43297C85.9958 1.17976 85.9317 0.932064 85.8139 0.714264C85.6961 0.49646 85.5286 0.316059 85.328 0.190819C85.1273 0.0655746 84.9003 -0.000190831 84.6695 -3.93102e-06L76.9474 -8.4208e-06L48.7709 -1.08841e-05L-5.79754e-05 -1.51478e-05L-6.10352e-05 35L48.7648 35C48.7669 35 48.7689 35 48.7709 35Z" fill="url(#paint0_linear_284_178)"/>
<defs>
<linearGradient id="paint0_linear_284_178" x1="-21.5" y1="18" x2="30" y2="18" gradientUnits="userSpaceOnUse">
<stop offset="0.0677083" stop-color="#5D8B22" stop-opacity="0"/>
<stop offset="1" stop-color="#5D8B22"/>
</linearGradient>
</defs>
</svg>
