<svg width="91" height="35" viewBox="0 0 91 35" fill="none" xmlns="http://www.w3.org/2000/svg">
<path fill-rule="evenodd" clip-rule="evenodd" d="M81.421 35L89.5921 35C89.8364 35.0002 90.0766 34.9344 90.2889 34.8092C90.5012 34.6839 90.6785 34.5035 90.8031 34.2857C90.9278 34.0679 90.9955 33.8202 90.9998 33.567C91.004 33.3138 90.9446 33.0638 90.8273 32.8417L82.7519 17.5L90.8273 2.15833C90.9446 1.93617 91.004 1.68618 90.9998 1.43298C90.9955 1.17977 90.9278 0.932068 90.8031 0.714268C90.6785 0.496464 90.5012 0.316063 90.2889 0.190823C90.0766 0.0655784 89.8364 -0.000187022 89.5921 -1.23083e-07L81.421 -8.37419e-07L51.6064 -7.25859e-06C51.6043 -7.25878e-06 51.6021 -3.44427e-06 51.6 -3.44446e-06L-1.98284e-05 -7.95547e-06L-2.28882e-05 35L51.6064 35L81.421 35Z" fill="#5D8B22"/>
</svg>
