<svg width="650" height="900" viewBox="0 0 650 900" fill="none" xmlns="http://www.w3.org/2000/svg">
<g clip-path="url(#clip0_397_564)">
<path d="M622.578 480.405L610.665 497.176L492 412.884L503.913 396.112L622.578 480.405ZM579.654 406.112C582.818 408.359 584.758 411.325 585.475 415.008C586.191 418.691 585.351 422.22 582.953 425.595C580.556 428.971 577.5 430.927 573.786 431.463C570.073 431.999 566.634 431.143 563.469 428.895C560.305 426.647 558.365 423.682 557.648 419.999C556.931 416.316 557.772 412.787 560.17 409.411C562.567 406.036 565.623 404.08 569.337 403.544C573.05 403.008 576.489 403.864 579.654 406.112Z" fill="#F4F4F4"/>
<path d="M290 39.5C290 19.7564 293.418 1.5641 300.255 -15.0769C307.091 -32 316.776 -46.6667 329.309 -59.0769C341.558 -71.2051 356.227 -80.6538 373.318 -87.4231C390.694 -94.4744 409.921 -98 431 -98C452.079 -98 471.164 -94.4744 488.255 -87.4231C505.63 -80.6538 520.585 -71.2051 533.118 -59.0769C545.367 -46.6667 554.909 -32 561.745 -15.0769C568.582 1.5641 572 19.7564 572 39.5C572 59.2436 568.582 77.5769 561.745 94.5C554.909 111.141 545.367 125.526 533.118 137.654C520.585 150.064 505.63 159.654 488.255 166.423C471.164 173.474 452.079 177 431 177C409.921 177 390.694 173.474 373.318 166.423C356.227 159.654 341.558 150.064 329.309 137.654C316.776 125.526 307.091 111.141 300.255 94.5C293.418 77.5769 290 59.2436 290 39.5ZM335.291 39.5C335.291 53.3205 337.57 66.0128 342.127 77.5769C346.97 89.141 353.664 99.1538 362.209 107.615C370.755 116.077 380.867 122.705 392.545 127.5C404.224 132.295 417.042 134.692 431 134.692C444.958 134.692 457.776 132.295 469.455 127.5C481.133 122.705 491.245 116.077 499.791 107.615C508.336 99.1538 514.888 89.141 519.445 77.5769C524.288 66.0128 526.709 53.3205 526.709 39.5C526.709 25.6795 524.288 12.9872 519.445 1.42308C514.888 -10.141 508.336 -20.1538 499.791 -28.6154C491.245 -37.0769 481.133 -43.7051 469.455 -48.5C457.776 -53.2949 444.958 -55.6923 431 -55.6923C417.042 -55.6923 404.224 -53.2949 392.545 -48.5C380.867 -43.7051 370.755 -37.0769 362.209 -28.6154C353.664 -20.1538 346.97 -10.141 342.127 1.42308C337.57 12.9872 335.291 25.6795 335.291 39.5Z" fill="#F8F8F8"/>
<path d="M115.193 631L174.824 755.451L152.838 765.986L103.145 662.277L-20.0615 721.312L-30 700.57L115.193 631Z" fill="#F4F4F4"/>
<path d="M586.466 813.248L640.428 792.515L647.235 810.233L589.711 832.334L677.555 875.849L668.963 893.384L592.045 855.431L560.327 935.123L542.205 927.852L578.314 836.713L520.79 858.815L513.983 841.097L567.588 820.501L558.058 795.696L576.936 788.443L586.466 813.248Z" fill="#F4F4F4"/>
<path d="M74.1872 196.423L15.9006 225.192L11.9171 217.121L22.4411 211.927L6.50741 179.645L-4.01657 184.84L-8 176.769L50.2866 148L54.2701 156.07L43.7461 161.265L59.6798 193.547L70.2038 188.352L74.1872 196.423ZM51.0987 197.782L35.165 165.5L15.0885 175.41L31.0222 207.691L51.0987 197.782Z" fill="#EEEEEE"/>
</g>
<defs>
<clipPath id="clip0_397_564">
<rect width="650" height="900" fill="white"/>
</clipPath>
</defs>
</svg>
