<svg width="100" height="100" viewBox="0 0 100 100" fill="none" xmlns="http://www.w3.org/2000/svg">
<g filter="url(#filter0_d_97_614)">
<path d="M84.8575 15.1896C80.374 10.7037 74.0443 10 66.5716 10H33.3408C25.9561 10 19.6264 10.7037 15.1429 15.1896C10.6592 19.6756 10 25.9648 10 33.3096V66.5585C10 74.0791 10.6592 80.3244 15.1429 84.8104C19.6264 89.2963 25.9561 90 33.4726 90H66.5716C74.0443 90 80.374 89.2963 84.8575 84.8104C89.3411 80.3244 90 74.0791 90 66.5585V33.4415C90 25.9209 89.3411 19.6316 84.8575 15.1896Z" fill="white"/>
</g>
<path d="M50.7998 39.647V50.7058M50.7998 50.7058L55.2443 46.2823M50.7998 50.7058L46.3554 46.2823M30.8627 46.2823L46.8545 56.9355C48.28 57.8815 48.9929 58.3544 49.7634 58.5381C50.444 58.7005 51.1538 58.7005 51.8347 58.5381C52.6051 58.3544 53.318 57.8815 54.7436 56.9355L70.7354 46.2823M47.0178 33.1639L34.129 41.2202C32.9136 41.9799 32.3059 42.3597 31.8651 42.8732C31.475 43.3277 31.1815 43.8562 31.0023 44.4267C30.7998 45.0713 30.7998 45.7855 30.7998 47.2139V61.3223C30.7998 63.7997 30.7998 65.0385 31.2842 65.9847C31.7103 66.817 32.3902 67.4938 33.2265 67.9178C34.1772 68.4 35.4218 68.4 37.9109 68.4H63.6887C66.1778 68.4 67.4225 68.4 68.3731 67.9178C69.2094 67.4938 69.8894 66.817 70.3154 65.9847C70.7998 65.0385 70.7998 63.7997 70.7998 61.3223V47.2139C70.7998 45.7855 70.7998 45.0713 70.5974 44.4267C70.418 43.8562 70.1247 43.3277 69.7345 42.8732C69.2938 42.3597 68.686 41.9799 67.4707 41.2202L54.5818 33.1639C53.21 32.3066 52.5242 31.8779 51.7885 31.7108C51.1376 31.563 50.462 31.563 49.8111 31.7108C49.0754 31.8779 48.3896 32.3066 47.0178 33.1639Z" stroke="#99B463" stroke-width="5" stroke-linecap="round" stroke-linejoin="round"/>
<defs>
<filter id="filter0_d_97_614" x="0" y="0" width="100" height="100" filterUnits="userSpaceOnUse" color-interpolation-filters="sRGB">
<feFlood flood-opacity="0" result="BackgroundImageFix"/>
<feColorMatrix in="SourceAlpha" type="matrix" values="0 0 0 0 0 0 0 0 0 0 0 0 0 0 0 0 0 0 127 0" result="hardAlpha"/>
<feOffset/>
<feGaussianBlur stdDeviation="5"/>
<feComposite in2="hardAlpha" operator="out"/>
<feColorMatrix type="matrix" values="0 0 0 0 0 0 0 0 0 0 0 0 0 0 0 0 0 0 0.25 0"/>
<feBlend mode="normal" in2="BackgroundImageFix" result="effect1_dropShadow_97_614"/>
<feBlend mode="normal" in="SourceGraphic" in2="effect1_dropShadow_97_614" result="shape"/>
</filter>
</defs>
</svg>
