<svg width="42" height="44" viewBox="0 0 42 44" fill="none" xmlns="http://www.w3.org/2000/svg">
<path d="M31.7455 14.3954L32.6354 13.5056C34.1096 12.0313 36.5 12.0313 37.9742 13.5056C39.4486 14.9799 39.4486 17.3702 37.9742 18.8444L37.0845 19.7343M31.7455 14.3954C31.7455 14.3954 31.8569 16.2862 33.5252 17.9546C35.1936 19.6229 37.0845 19.7343 37.0845 19.7343M31.7455 14.3954L23.5652 22.5757C23.011 23.1298 22.734 23.4069 22.4957 23.7123C22.2148 24.0727 21.9739 24.4627 21.7773 24.8751C21.6106 25.2249 21.4866 25.5964 21.2389 26.3399L20.4455 28.7199L20.1888 29.4898M37.0845 19.7343L28.9041 27.9146C28.35 28.4688 28.0729 28.7458 27.7675 28.9841C27.4071 29.265 27.0171 29.5059 26.6047 29.7026C26.2549 29.8692 25.8834 29.9932 25.1399 30.2409L22.7599 31.0343L21.99 31.291M20.1888 29.4898L19.9321 30.2599C19.8102 30.6257 19.9054 31.0291 20.1781 31.3017C20.4507 31.5744 20.8541 31.6696 21.2199 31.5477L21.99 31.291M20.1888 29.4898L21.99 31.291" stroke="#99B463" stroke-width="5"/>
<path d="M12.2002 23.9199H17.0002" stroke="#99B463" stroke-width="5" stroke-linecap="round"/>
<path d="M12.2002 16.24H24.6802" stroke="#99B463" stroke-width="5" stroke-linecap="round"/>
<path d="M12.2002 31.6001H15.0802" stroke="#99B463" stroke-width="5" stroke-linecap="round"/>
<path d="M2.59961 25.8398V18.1598C2.59961 10.919 2.59961 7.29865 4.84902 5.04922C7.09846 2.7998 10.7188 2.7998 17.9596 2.7998H21.7996C29.0403 2.7998 32.6609 2.7998 34.9101 5.04922M37.1596 25.8398C37.1596 33.0805 37.1596 36.7011 34.9101 38.9503M34.9101 38.9503C32.6609 41.1998 29.0403 41.1998 21.7996 41.1998H17.9596C10.7188 41.1998 7.09846 41.1998 4.84902 38.9503M34.9101 38.9503C36.7209 37.1396 37.074 34.4406 37.1429 29.6798" stroke="#99B463" stroke-width="5" stroke-linecap="round"/>
</svg>
