<svg width="41" height="41" viewBox="0 0 41 41" fill="none" xmlns="http://www.w3.org/2000/svg">
<path d="M14.5747 1.62354H7.15423C3.32066 1.62354 1.42285 3.52134 1.42285 7.35491V14.7943C1.42285 18.7038 3.32066 20.6016 7.15423 20.5067H14.5936C18.5031 20.6016 20.4009 18.7038 20.306 14.7753V7.35491C20.4009 3.52134 18.5031 1.62354 14.5747 1.62354ZM14.7265 16.3505C13.436 16.3505 12.1834 15.8571 11.1396 14.9841C9.96298 15.8381 8.53963 16.3505 7.0024 16.3505C6.2243 16.3505 5.57905 15.7053 5.57905 14.9272C5.57905 14.1491 6.2243 13.5038 7.0024 13.5038C8.93817 13.5038 10.5513 12.1753 11.1396 10.3534H7.0024C6.2243 10.3534 5.57905 9.70819 5.57905 8.93009C5.57905 8.15199 6.2243 7.50674 7.0024 7.50674H9.45057C9.52649 6.78557 10.1148 6.21623 10.855 6.21623C11.5951 6.21623 12.1834 6.78557 12.2593 7.50674H12.7528C12.7717 7.50674 12.7907 7.50674 12.7907 7.50674H12.8287H14.7075C15.4856 7.50674 16.1309 8.15199 16.1309 8.93009C16.1309 9.70819 15.5046 10.3534 14.7075 10.3534H14.0812C13.9104 11.2644 13.5498 12.1184 13.0754 12.8965C13.5878 13.2761 14.1382 13.5038 14.7265 13.5038C15.5046 13.5038 16.1498 14.1491 16.1498 14.9272C16.1498 15.7053 15.5046 16.3505 14.7265 16.3505Z" fill="#99B463"/>
<path d="M14.708 41.0028C6.60437 41.0028 0 34.3985 0 26.2948C0 25.5167 0.645254 24.8715 1.42336 24.8715C2.20146 24.8715 2.84671 25.5167 2.84671 26.2948C2.84671 31.9123 6.75619 36.6189 12.0131 37.8525L11.5007 36.9984C11.1022 36.3152 11.3109 35.4422 11.9941 35.0437C12.6584 34.6452 13.5503 34.8539 13.9489 35.5371L15.9416 38.8583C16.2073 39.2948 16.2073 39.8452 15.9606 40.2817C15.6949 40.7182 15.2204 41.0028 14.708 41.0028Z" fill="#99B463"/>
<path d="M39.3762 16.3314C38.5981 16.3314 37.9528 15.6862 37.9528 14.9081C37.9528 9.29057 34.0433 4.58401 28.7864 3.35043L29.2988 4.20445C29.6974 4.88766 29.4886 5.76065 28.8054 6.15919C28.1412 6.55773 27.2492 6.34897 26.8507 5.66576L24.858 2.3446C24.5923 1.9081 24.5923 1.35774 24.839 0.92124C25.1047 0.484744 25.5791 0.200073 26.0915 0.200073C34.1952 0.200073 40.7995 6.80444 40.7995 14.9081C40.7995 15.6862 40.1543 16.3314 39.3762 16.3314Z" fill="#99B463"/>
<circle cx="29.7381" cy="29.9387" r="9.62188" fill="#99B463"/>
<path fill-rule="evenodd" clip-rule="evenodd" d="M25.7853 29.0107C25.6086 29.2866 25.4692 29.5891 25.367 29.9183C25.2702 30.2692 25.2218 30.6443 25.2218 31.0436C25.2218 31.6487 25.3368 32.1932 25.5667 32.6773C25.7966 33.1492 26.1173 33.5486 26.5287 33.8753C26.9402 34.2141 27.4182 34.4682 27.9627 34.6376C28.5072 34.8071 29.1002 34.8918 29.7415 34.8918C30.3708 34.8918 30.9638 34.8071 31.5204 34.6376C32.077 34.4682 32.5611 34.2202 32.9725 33.8934C33.3719 33.5667 33.6925 33.1674 33.9345 32.6954C34.1766 32.2114 34.2976 31.6608 34.2976 31.0436C34.2976 30.6443 34.2431 30.2692 34.1342 29.9183C34.0321 29.5891 33.8927 29.2866 33.716 29.0107H35.2963C35.8978 29.0107 36.3854 28.5231 36.3854 27.9216C36.3854 27.3201 35.8978 26.8325 35.2963 26.8325H31.6024C31.6008 25.812 30.773 24.9852 29.7521 24.9852C28.7312 24.9852 27.9034 25.812 27.9017 26.8325H24.2239C23.6224 26.8325 23.1348 27.3201 23.1348 27.9216C23.1348 28.5231 23.6224 29.0107 24.2239 29.0107H25.7853ZM31.7201 31.0436C31.7201 30.5717 31.5628 30.1361 31.2481 29.7367C30.9335 29.3374 30.4313 29.1377 29.7415 29.1377C29.0276 29.1377 28.5254 29.3374 28.235 29.7367C27.9446 30.1361 27.7993 30.5717 27.7993 31.0436C27.7993 31.5156 27.9506 31.9452 28.2531 32.3324C28.5557 32.7196 29.0518 32.9133 29.7415 32.9133C30.4313 32.9133 30.9335 32.7196 31.2481 32.3324C31.5628 31.9452 31.7201 31.5156 31.7201 31.0436Z" fill="white"/>
</svg>
