<svg width="46" height="42" viewBox="0 0 46 42" fill="none" xmlns="http://www.w3.org/2000/svg">
<path d="M22.7998 10.647V21.7058M22.7998 21.7058L27.2443 17.2823M22.7998 21.7058L18.3554 17.2823M2.86274 17.2823L18.8545 27.9355C20.28 28.8815 20.9929 29.3544 21.7634 29.5381C22.444 29.7005 23.1538 29.7005 23.8347 29.5381C24.6051 29.3544 25.318 28.8815 26.7436 27.9355L42.7354 17.2823M19.0178 4.16392L6.129 12.2202C4.9136 12.9799 4.30592 13.3597 3.86514 13.8732C3.47503 14.3277 3.18149 14.8562 3.00227 15.4267C2.7998 16.0713 2.7998 16.7855 2.7998 18.2139V32.3223C2.7998 34.7997 2.7998 36.0385 3.28423 36.9847C3.71032 37.817 4.39023 38.4938 5.22652 38.9178C6.17723 39.4 7.4218 39.4 9.91092 39.4H35.6887C38.1778 39.4 39.4225 39.4 40.3731 38.9178C41.2094 38.4938 41.8894 37.817 42.3154 36.9847C42.7998 36.0385 42.7998 34.7997 42.7998 32.3223V18.2139C42.7998 16.7855 42.7998 16.0713 42.5974 15.4267C42.418 14.8562 42.1247 14.3277 41.7345 13.8732C41.2938 13.3597 40.686 12.9799 39.4707 12.2202L26.5818 4.16389C25.21 3.30657 24.5242 2.87788 23.7885 2.71079C23.1376 2.56304 22.462 2.56304 21.8111 2.71079C21.0754 2.87788 20.3896 3.30657 19.0178 4.16392Z" stroke="#99B463" stroke-width="5" stroke-linecap="round" stroke-linejoin="round"/>
</svg>
