<svg width="100" height="100" viewBox="0 0 100 100" fill="none" xmlns="http://www.w3.org/2000/svg">
<g filter="url(#filter0_d_97_620)">
<path d="M84.8575 15.1899C80.374 10.7039 74.0443 10.0002 66.5716 10.0002H33.3408C25.9561 10.0002 19.6264 10.7039 15.1429 15.1899C10.6592 19.6758 10 25.965 10 33.3098V66.5588C10 74.0794 10.6592 80.3247 15.1429 84.8106C19.6264 89.2966 25.9561 90.0002 33.4726 90.0002H66.5716C74.0443 90.0002 80.374 89.2966 84.8575 84.8106C89.3411 80.3247 90 74.0794 90 66.5588V33.4417C90 25.9211 89.3411 19.6319 84.8575 15.1899Z" fill="white"/>
</g>
<path d="M60.7455 42.3954L61.6354 41.5056C63.1096 40.0313 65.5 40.0313 66.9742 41.5056C68.4486 42.9799 68.4486 45.3702 66.9742 46.8444L66.0845 47.7343M60.7455 42.3954C60.7455 42.3954 60.8569 44.2862 62.5252 45.9546C64.1936 47.6229 66.0845 47.7343 66.0845 47.7343M60.7455 42.3954L52.5652 50.5757C52.011 51.1298 51.734 51.4069 51.4957 51.7123C51.2148 52.0727 50.9739 52.4627 50.7773 52.8751C50.6106 53.2249 50.4866 53.5964 50.2389 54.3399L49.4455 56.7199L49.1888 57.4898M66.0845 47.7343L57.9041 55.9146C57.35 56.4688 57.0729 56.7458 56.7675 56.9841C56.4071 57.265 56.0171 57.5059 55.6047 57.7026C55.2549 57.8692 54.8834 57.9932 54.1399 58.2409L51.7599 59.0343L50.99 59.291M49.1888 57.4898L48.9321 58.2599C48.8102 58.6257 48.9054 59.0291 49.1781 59.3017C49.4507 59.5744 49.8541 59.6696 50.2199 59.5477L50.99 59.291M49.1888 57.4898L50.99 59.291" stroke="#99B463" stroke-width="5"/>
<path d="M41.2002 51.9199H46.0002" stroke="#99B463" stroke-width="5" stroke-linecap="round"/>
<path d="M41.2002 44.24H53.6802" stroke="#99B463" stroke-width="5" stroke-linecap="round"/>
<path d="M41.2002 59.6001H44.0802" stroke="#99B463" stroke-width="5" stroke-linecap="round"/>
<path d="M31.5996 53.8398V46.1598C31.5996 38.919 31.5996 35.2987 33.849 33.0492C36.0985 30.7998 39.7188 30.7998 46.9596 30.7998H50.7996C58.0403 30.7998 61.6609 30.7998 63.9101 33.0492M66.1596 53.8398C66.1596 61.0805 66.1596 64.7011 63.9101 66.9503M63.9101 66.9503C61.6609 69.1998 58.0403 69.1998 50.7996 69.1998H46.9596C39.7188 69.1998 36.0985 69.1998 33.849 66.9503M63.9101 66.9503C65.7209 65.1396 66.074 62.4406 66.1429 57.6798" stroke="#99B463" stroke-width="5" stroke-linecap="round"/>
<defs>
<filter id="filter0_d_97_620" x="0" y="0.000244141" width="100" height="100" filterUnits="userSpaceOnUse" color-interpolation-filters="sRGB">
<feFlood flood-opacity="0" result="BackgroundImageFix"/>
<feColorMatrix in="SourceAlpha" type="matrix" values="0 0 0 0 0 0 0 0 0 0 0 0 0 0 0 0 0 0 127 0" result="hardAlpha"/>
<feOffset/>
<feGaussianBlur stdDeviation="5"/>
<feComposite in2="hardAlpha" operator="out"/>
<feColorMatrix type="matrix" values="0 0 0 0 0 0 0 0 0 0 0 0 0 0 0 0 0 0 0.25 0"/>
<feBlend mode="normal" in2="BackgroundImageFix" result="effect1_dropShadow_97_620"/>
<feBlend mode="normal" in="SourceGraphic" in2="effect1_dropShadow_97_620" result="shape"/>
</filter>
</defs>
</svg>
