<svg width="450" height="455" viewBox="0 0 450 455" fill="none" xmlns="http://www.w3.org/2000/svg">
<g clip-path="url(#clip0_288_483)">
<path d="M63.1931 228L122.824 352.451L100.838 362.986L51.1453 259.277L-72.0615 318.312L-82 297.57L63.1931 228Z" fill="#F4F4F4"/>
<path d="M164.187 62.4228L105.901 91.192L101.917 83.1216L112.441 77.9271L96.5074 45.6453L85.9834 50.8397L82 42.7693L140.287 14.0001L144.27 22.0705L133.746 27.265L149.68 59.5468L160.204 54.3524L164.187 62.4228ZM141.099 63.7823L125.165 31.5004L105.088 41.4098L121.022 73.6917L141.099 63.7823Z" fill="#EEEEEE"/>
<path d="M402.304 315.639L448.718 297.806L454.573 313.046L405.095 332.055L480.652 369.484L473.262 384.565L407.103 351.921L379.821 420.466L364.234 414.212L395.292 335.822L345.814 354.832L339.959 339.592L386.067 321.877L377.87 300.542L394.107 294.304L402.304 315.639Z" fill="#F4F4F4"/>
<path d="M423.578 148.405L411.665 165.176L293 80.8838L304.913 64.1125L423.578 148.405ZM380.654 74.1116C383.818 76.3594 385.758 79.3248 386.475 83.0079C387.191 86.6909 386.351 90.2201 383.953 93.5955C381.556 96.9708 378.5 98.9266 374.786 99.4627C371.073 99.9989 367.634 99.1431 364.469 96.8953C361.305 94.6475 359.365 91.6821 358.648 87.999C357.931 84.3159 358.772 80.7867 361.17 77.4114C363.567 74.036 366.623 72.0803 370.337 71.5441C374.05 71.008 377.489 71.8638 380.654 74.1116Z" fill="#F4F4F4"/>
</g>
<defs>
<clipPath id="clip0_288_483">
<rect width="450" height="455" fill="white"/>
</clipPath>
</defs>
</svg>
