<svg width="1980" height="450" viewBox="0 0 1980 450" fill="none" xmlns="http://www.w3.org/2000/svg">
<g clip-path="url(#clip0_288_405)">
<path d="M1350.47 70.1044L1401.6 97.0639L1392.75 113.854L1338.24 85.1147L1363.34 179.88L1344.48 184.959L1322.4 102.08L1241.53 130.684L1235.07 112.258L1327.44 79.4203L1272.93 50.6812L1281.78 33.8913L1332.58 60.673L1344.97 37.1671L1362.86 46.5985L1350.47 70.1044Z" fill="#F4F4F4"/>
<path d="M1756.71 386.898L1728.73 400.372L1633.39 202.404L1661.37 188.93L1756.71 386.898ZM1754.17 257.399C1756.72 262.678 1757.12 268.013 1755.38 273.403C1753.64 278.793 1749.95 282.844 1744.32 285.556C1738.69 288.267 1733.23 288.623 1727.93 286.622C1722.63 284.622 1718.71 280.982 1716.16 275.703C1713.62 270.424 1713.22 265.089 1714.96 259.699C1716.7 254.309 1720.39 250.258 1726.02 247.546C1731.65 244.834 1737.11 244.479 1742.41 246.479C1747.71 248.48 1751.63 252.12 1754.17 257.399Z" fill="#F4F4F4"/>
<path d="M120.193 198L179.824 322.451L157.838 332.986L108.145 229.277L-15.0615 288.312L-25 267.57L120.193 198Z" fill="#F4F4F4"/>
<path d="M1806 -13.5C1806 -33.2436 1809.42 -51.4359 1816.25 -68.0769C1823.09 -85 1832.78 -99.6667 1845.31 -112.077C1857.56 -124.205 1872.23 -133.654 1889.32 -140.423C1906.69 -147.474 1925.92 -151 1947 -151C1968.08 -151 1987.16 -147.474 2004.25 -140.423C2021.63 -133.654 2036.58 -124.205 2049.12 -112.077C2061.37 -99.6667 2070.91 -85 2077.75 -68.0769C2084.58 -51.4359 2088 -33.2436 2088 -13.5C2088 6.24359 2084.58 24.5769 2077.75 41.5C2070.91 58.141 2061.37 72.5256 2049.12 84.6538C2036.58 97.0641 2021.63 106.654 2004.25 113.423C1987.16 120.474 1968.08 124 1947 124C1925.92 124 1906.69 120.474 1889.32 113.423C1872.23 106.654 1857.56 97.0641 1845.31 84.6538C1832.78 72.5256 1823.09 58.141 1816.25 41.5C1809.42 24.5769 1806 6.24359 1806 -13.5ZM1851.29 -13.5C1851.29 0.320514 1853.57 13.0128 1858.13 24.5769C1862.97 36.141 1869.66 46.1538 1878.21 54.6154C1886.75 63.0769 1896.87 69.7051 1908.55 74.5C1920.22 79.2949 1933.04 81.6923 1947 81.6923C1960.96 81.6923 1973.78 79.2949 1985.45 74.5C1997.13 69.7051 2007.25 63.0769 2015.79 54.6154C2024.34 46.1538 2030.89 36.141 2035.45 24.5769C2040.29 13.0128 2042.71 0.320514 2042.71 -13.5C2042.71 -27.3205 2040.29 -40.0128 2035.45 -51.5769C2030.89 -63.141 2024.34 -73.1538 2015.79 -81.6154C2007.25 -90.0769 1997.13 -96.7051 1985.45 -101.5C1973.78 -106.295 1960.96 -108.692 1947 -108.692C1933.04 -108.692 1920.22 -106.295 1908.55 -101.5C1896.87 -96.7051 1886.75 -90.0769 1878.21 -81.6154C1869.66 -73.1538 1862.97 -63.141 1858.13 -51.5769C1853.57 -40.0128 1851.29 -27.3205 1851.29 -13.5Z" fill="#F4F4F4"/>
<path d="M1892.79 356.67L1904.28 379.596L1864.58 399.497L1869.84 409.991L1910.88 389.419L1914.23 396.103L1866.1 420.226L1854.21 396.499L1893.91 376.597L1889.05 366.905L1849.35 386.807L1846 380.123L1892.79 356.67Z" fill="#F4F4F4"/>
<path d="M374.125 73.7293L312 54.6115L314.647 46.0096L325.864 49.4614L336.453 15.0538L325.236 11.6019L327.883 3L390.008 22.1179L387.361 30.7198L376.144 27.2679L365.555 61.6756L376.772 65.1274L374.125 73.7293ZM356.409 58.861L366.997 24.4534L345.599 17.8683L335.011 52.276L356.409 58.861Z" fill="#EEEEEE"/>
</g>
<defs>
<clipPath id="clip0_288_405">
<rect width="1980" height="450" fill="white"/>
</clipPath>
</defs>
</svg>
