<svg width="780" height="455" viewBox="0 0 780 455" fill="none" xmlns="http://www.w3.org/2000/svg">
<g clip-path="url(#clip0_288_456)">
<path d="M63.1931 228L122.824 352.451L100.838 362.986L51.1453 259.277L-72.0615 318.312L-82 297.57L63.1931 228Z" fill="#F4F4F4"/>
<path d="M224.097 45.1914L165.811 73.9606L161.827 65.8901L172.351 60.6957L156.418 28.4139L145.894 33.6083L141.91 25.5378L200.197 -3.23137L204.18 4.83909L193.656 10.0335L209.59 42.3154L220.114 37.1209L224.097 45.1914ZM201.009 46.5508L185.075 14.269L164.999 24.1784L180.932 56.4602L201.009 46.5508Z" fill="#EEEEEE"/>
<path d="M693.976 345.856L747.938 325.124L754.745 342.841L697.221 364.943L785.065 408.458L776.473 425.992L699.555 388.039L667.837 467.731L649.715 460.461L685.823 369.322L628.3 391.423L621.492 373.705L675.098 353.11L665.568 328.305L684.446 321.052L693.976 345.856Z" fill="#F4F4F4"/>
<path d="M747.88 182.097L735.967 198.869L617.302 114.576L629.215 97.8051L747.88 182.097ZM704.955 107.804C708.12 110.052 710.06 113.017 710.777 116.7C711.493 120.384 710.653 123.913 708.255 127.288C705.857 130.663 702.802 132.619 699.088 133.155C695.375 133.692 691.936 132.836 688.771 130.588C685.607 128.34 683.666 125.375 682.95 121.692C682.233 118.009 683.074 114.479 685.471 111.104C687.869 107.729 690.925 105.773 694.638 105.237C698.352 104.701 701.791 105.556 704.955 107.804Z" fill="#F4F4F4"/>
</g>
<defs>
<clipPath id="clip0_288_456">
<rect width="780" height="455" fill="white"/>
</clipPath>
</defs>
</svg>
