<svg width="172" height="24" viewBox="0 0 172 24" fill="none" xmlns="http://www.w3.org/2000/svg">
<path d="M2 10.5C1.17157 10.5 0.5 11.1716 0.5 12C0.5 12.8284 1.17157 13.5 2 13.5V10.5ZM171.061 13.0607C171.646 12.4749 171.646 11.5251 171.061 10.9393L161.515 1.3934C160.929 0.807611 159.979 0.807611 159.393 1.3934C158.808 1.97919 158.808 2.92893 159.393 3.51472L167.879 12L159.393 20.4853C158.808 21.0711 158.808 22.0208 159.393 22.6066C159.979 23.1924 160.929 23.1924 161.515 22.6066L171.061 13.0607ZM2 13.5H170V10.5H2V13.5Z" fill="#004818"/>
</svg>
