<svg width="100" height="100" viewBox="0 0 100 100" fill="none" xmlns="http://www.w3.org/2000/svg">
<g filter="url(#filter0_d_97_628)">
<path d="M84.8575 15.1896C80.374 10.7037 74.0443 10 66.5716 10H33.3408C25.9561 10 19.6264 10.7037 15.1429 15.1896C10.6592 19.6756 10 25.9648 10 33.3096V66.5585C10 74.0791 10.6592 80.3244 15.1429 84.8104C19.6264 89.2963 25.9561 90 33.4726 90H66.5716C74.0443 90 80.374 89.2963 84.8575 84.8104C89.3411 80.3244 90 74.0791 90 66.5585V33.4415C90 25.9209 89.3411 19.6316 84.8575 15.1896Z" fill="white"/>
</g>
<path d="M44.5751 30.6235H37.1547C33.3211 30.6235 31.4233 32.5213 31.4233 36.3549V43.7943C31.4233 47.7038 33.3211 49.6016 37.1547 49.5067H44.5941C48.5036 49.6016 50.4014 47.7038 50.3065 43.7753V36.3549C50.4014 32.5213 48.5036 30.6235 44.5751 30.6235ZM44.727 45.3505C43.4365 45.3505 42.1839 44.8571 41.1401 43.9841C39.9635 44.8381 38.5401 45.3505 37.0029 45.3505C36.2248 45.3505 35.5795 44.7053 35.5795 43.9272C35.5795 43.1491 36.2248 42.5038 37.0029 42.5038C38.9387 42.5038 40.5518 41.1753 41.1401 39.3534H37.0029C36.2248 39.3534 35.5795 38.7082 35.5795 37.9301C35.5795 37.152 36.2248 36.5067 37.0029 36.5067H39.4511C39.527 35.7856 40.1153 35.2162 40.8554 35.2162C41.5956 35.2162 42.1839 35.7856 42.2598 36.5067H42.7532C42.7722 36.5067 42.7912 36.5067 42.7912 36.5067H42.8292H44.708C45.4861 36.5067 46.1313 37.152 46.1313 37.9301C46.1313 38.7082 45.5051 39.3534 44.708 39.3534H44.0817C43.9109 40.2644 43.5503 41.1184 43.0759 41.8965C43.5883 42.2761 44.1386 42.5038 44.727 42.5038C45.5051 42.5038 46.1503 43.1491 46.1503 43.9272C46.1503 44.7053 45.5051 45.3505 44.727 45.3505Z" fill="#99B463"/>
<path d="M44.708 70.0028C36.6044 70.0028 30 63.3985 30 55.2948C30 54.5167 30.6453 53.8715 31.4234 53.8715C32.2015 53.8715 32.8467 54.5167 32.8467 55.2948C32.8467 60.9123 36.7562 65.6189 42.0131 66.8525L41.5007 65.9984C41.1022 65.3152 41.3109 64.4422 41.9941 64.0437C42.6584 63.6452 43.5503 63.8539 43.9489 64.5371L45.9416 67.8583C46.2073 68.2948 46.2073 68.8452 45.9606 69.2817C45.6949 69.7182 45.2204 70.0028 44.708 70.0028Z" fill="#99B463"/>
<path d="M69.3767 45.3314C68.5986 45.3314 67.9533 44.6862 67.9533 43.9081C67.9533 38.2906 64.0438 33.584 58.7869 32.3504L59.2993 33.2044C59.6979 33.8877 59.4891 34.7606 58.8059 35.1592C58.1417 35.5577 57.2497 35.349 56.8511 34.6658L54.8584 31.3446C54.5928 30.9081 54.5928 30.3577 54.8395 29.9212C55.1052 29.4847 55.5796 29.2001 56.092 29.2001C64.1957 29.2001 70.8 35.8044 70.8 43.9081C70.8 44.6862 70.1548 45.3314 69.3767 45.3314Z" fill="#99B463"/>
<circle cx="59.7381" cy="58.9387" r="9.62188" fill="#99B463"/>
<path fill-rule="evenodd" clip-rule="evenodd" d="M55.7848 58.0107C55.6081 58.2866 55.4687 58.5891 55.3665 58.9183C55.2697 59.2692 55.2213 59.6443 55.2213 60.0436C55.2213 60.6487 55.3363 61.1932 55.5662 61.6773C55.7961 62.1492 56.1168 62.5486 56.5282 62.8753C56.9397 63.2141 57.4177 63.4682 57.9622 63.6376C58.5068 63.8071 59.0997 63.8918 59.7411 63.8918C60.3703 63.8918 60.9633 63.8071 61.5199 63.6376C62.0766 63.4682 62.5606 63.2202 62.972 62.8934C63.3714 62.5667 63.692 62.1674 63.9341 61.6954C64.1761 61.2114 64.2971 60.6608 64.2971 60.0436C64.2971 59.6443 64.2426 59.2692 64.1337 58.9183C64.0316 58.5891 63.8922 58.2866 63.7155 58.0107H65.2958C65.8973 58.0107 66.3849 57.5231 66.3849 56.9216C66.3849 56.3201 65.8973 55.8325 65.2958 55.8325H61.6019C61.6003 54.812 60.7725 53.9852 59.7516 53.9852C58.7307 53.9852 57.9029 54.812 57.9012 55.8325H54.2234C53.6219 55.8325 53.1343 56.3201 53.1343 56.9216C53.1343 57.5231 53.6219 58.0107 54.2234 58.0107H55.7848ZM61.7196 60.0436C61.7196 59.5717 61.5623 59.1361 61.2476 58.7367C60.933 58.3374 60.4308 58.1377 59.7411 58.1377C59.0271 58.1377 58.5249 58.3374 58.2345 58.7367C57.9441 59.1361 57.7989 59.5717 57.7989 60.0436C57.7989 60.5156 57.9501 60.9452 58.2526 61.3324C58.5552 61.7196 59.0513 61.9133 59.7411 61.9133C60.4308 61.9133 60.933 61.7196 61.2476 61.3324C61.5623 60.9452 61.7196 60.5156 61.7196 60.0436Z" fill="white"/>
<defs>
<filter id="filter0_d_97_628" x="0" y="0" width="100" height="100" filterUnits="userSpaceOnUse" color-interpolation-filters="sRGB">
<feFlood flood-opacity="0" result="BackgroundImageFix"/>
<feColorMatrix in="SourceAlpha" type="matrix" values="0 0 0 0 0 0 0 0 0 0 0 0 0 0 0 0 0 0 127 0" result="hardAlpha"/>
<feOffset/>
<feGaussianBlur stdDeviation="5"/>
<feComposite in2="hardAlpha" operator="out"/>
<feColorMatrix type="matrix" values="0 0 0 0 0 0 0 0 0 0 0 0 0 0 0 0 0 0 0.25 0"/>
<feBlend mode="normal" in2="BackgroundImageFix" result="effect1_dropShadow_97_628"/>
<feBlend mode="normal" in="SourceGraphic" in2="effect1_dropShadow_97_628" result="shape"/>
</filter>
</defs>
</svg>
