<svg width="25" height="20" viewBox="0 0 25 20" fill="none" xmlns="http://www.w3.org/2000/svg">
<path d="M7.7319 20C17.0206 20 22.1019 12.3035 22.1019 5.64077C22.1019 5.42539 22.1019 5.20694 22.0927 4.99157C23.0819 4.27543 23.9357 3.38881 24.6141 2.37325C23.69 2.78069 22.7107 3.04922 21.7081 3.17013C22.7642 2.53884 23.5552 1.54555 23.9341 0.374893C22.9418 0.962744 21.8558 1.37541 20.7235 1.59483C19.9623 0.784138 18.955 0.24708 17.8576 0.0668435C16.7603 -0.113393 15.6341 0.0732493 14.6536 0.597861C13.673 1.12247 12.8929 1.95578 12.4339 2.96869C11.9749 3.98161 11.8627 5.11761 12.1147 6.20074C10.1068 6.10005 8.14236 5.57841 6.34896 4.66965C4.55556 3.76089 2.9732 2.48531 1.70452 0.925632C1.06047 2.03801 0.863913 3.35381 1.15478 4.60585C1.44564 5.85788 2.20212 6.95228 3.27059 7.66681C2.46993 7.63961 1.68687 7.42461 0.984563 7.03915V7.10838C0.985943 8.27367 1.38963 9.40275 2.12738 10.3048C2.86514 11.2068 3.89171 11.8264 5.03358 12.0589C4.60016 12.1783 4.15244 12.2378 3.70288 12.2358C3.38595 12.2368 3.06965 12.2074 2.75831 12.1481C3.08105 13.1512 3.70945 14.0283 4.55552 14.6564C5.40159 15.2845 6.42294 15.6323 7.47652 15.651C5.6867 17.0568 3.47582 17.8192 1.19994 17.8155C0.798912 17.8172 0.398168 17.7941 0 17.7463C2.3099 19.2189 4.9925 20.0008 7.7319 20Z" fill="#CCCCCC"/>
</svg>
